<?xml version="1.0" encoding="UTF-8"?>
<svg xmlns="http://www.w3.org/2000/svg" viewBox="0 0 24 24" width="512" height="512"><g id="_01_align_center" data-name="01 align center"><path d="M9,12a6,6,0,1,1,6-6A6.006,6.006,0,0,1,9,12ZM9,2a4,4,0,1,0,4,4A4,4,0,0,0,9,2Z"/><path d="M18,24H16V18.957A2.961,2.961,0,0,0,13.043,16H4.957A2.961,2.961,0,0,0,2,18.957V24H0V18.957A4.963,4.963,0,0,1,4.957,14h8.086A4.963,4.963,0,0,1,18,18.957Z"/><path d="M22,7.875a2.107,2.107,0,0,0-2,2.2,2.107,2.107,0,0,0-2-2.2,2.107,2.107,0,0,0-2,2.2c0,2.3,4,5.133,4,5.133s4-2.829,4-5.133A2.107,2.107,0,0,0,22,7.875Z"/></g></svg>
