<svg width="874" height="530" viewBox="0 0 874 530" fill="none" xmlns="http://www.w3.org/2000/svg">
<mask id="mask0" mask-type="alpha" maskUnits="userSpaceOnUse" x="637" y="56" width="207" height="401">
<path d="M814.368 56H666.999C650.499 56 637 69.479 637 85.9533V427.047C637 443.521 650.499 457 666.999 457H813.993C830.493 457 843.992 443.521 843.992 427.047V85.9533C844.367 69.479 830.868 56 814.368 56Z" fill="#23272A"/>
</mask>
<g mask="url(#mask0)">
<path d="M835.769 52H625.711V457.43H835.769V52Z" fill="#3442D9"/>
<path d="M698.142 197.574C692.957 180.347 690.254 172.163 699.586 167.098C708.917 162.032 737.172 165.542 750.414 168.66C763.656 171.778 765.603 175.133 756.931 188.064L698.142 197.574Z" fill="#FFF4B3"/>
<path d="M692.143 351.657C690.092 300.644 691.321 258.422 693.054 235.841C684.582 230.323 680.664 225.939 678.983 223.643C678.644 223.17 678.471 222.599 678.49 222.018C678.508 221.437 678.718 220.879 679.086 220.429C692.543 203.698 703.948 189.131 715.939 182.273C728.114 175.318 744.23 173.711 770.292 199.721C770.442 199.865 770.561 200.038 770.642 200.228C770.723 200.419 770.765 200.625 770.765 200.832C770.765 201.04 770.723 201.245 770.642 201.436C770.561 201.627 770.442 201.799 770.292 201.943C766.922 205.18 763.708 207.794 763.708 207.794C769.04 217.207 776.698 231.604 776.698 231.604H782.675C786.553 231.604 790.273 233.139 793.023 235.872C795.773 238.606 797.33 242.317 797.354 246.194C797.42 257.903 794.747 271.997 789.207 290.127C813.44 309.738 807.559 351.553 807.559 351.553L692.143 351.657Z" fill="#29CC7A"/>
<path d="M789.206 290.105C789.991 287.52 790.688 285.032 791.384 282.61L772.395 293.149C772.395 293.149 742.333 272.849 691.78 260.214C690.921 283.684 690.728 315.448 692.18 351.657L807.596 351.531C807.596 351.531 813.439 309.716 789.206 290.105Z" fill="#8CD9FF"/>
<path d="M794.081 294.8C792.588 293.104 790.958 291.534 789.208 290.105C789.993 287.52 790.689 285.032 791.385 282.61L772.396 293.149C772.396 293.149 742.335 272.849 691.781 260.214C691.667 263.176 691.571 266.267 691.492 269.486C730.218 285.483 750.941 312.982 753.451 351.59H782.039C787.045 329.438 791.067 310.079 794.081 294.8Z" fill="#BAE8FF"/>
<path d="M707.052 245.565C707.215 245.564 707.377 245.529 707.526 245.461C707.663 245.395 707.785 245.3 707.885 245.184C707.984 245.068 708.059 244.933 708.103 244.787L719.057 209.349C719.117 209.078 719.072 208.795 718.932 208.556C718.792 208.316 718.568 208.138 718.302 208.057C718.037 207.976 717.751 207.997 717.502 208.117C717.252 208.237 717.056 208.447 716.954 208.705L706.363 242.98C703.815 241.877 697.439 238.981 693.225 235.981C693.17 235.952 693.113 235.927 693.054 235.907C692.988 236.707 692.928 237.544 692.869 238.396C698.416 242.099 706.289 245.335 706.637 245.483C706.769 245.536 706.91 245.564 707.052 245.565Z" fill="black"/>
<path d="M753.804 188.538L708.812 191.878C759.211 201.477 761.277 202.765 753.804 188.538Z" fill="black"/>
<path d="M778.837 320.559L773.986 275.893C773.898 275.097 773.513 274.365 772.907 273.843C772.301 273.32 771.519 273.047 770.72 273.078L765.928 273.249L763.765 269.131C763.148 267.957 762.117 267.054 760.872 266.595C759.628 266.137 758.257 266.157 757.026 266.65C755.746 267.165 754.712 268.151 754.137 269.405C744.71 289.712 740.007 323.091 739.177 329.461C739.137 329.76 739.205 330.064 739.367 330.319C739.53 330.574 739.777 330.763 740.066 330.853L767.172 339.563C767.33 339.613 767.498 339.624 767.661 339.594C767.824 339.564 767.977 339.494 768.107 339.391C768.237 339.288 768.339 339.154 768.404 339.002C768.47 338.85 768.497 338.683 768.483 338.518L767.424 325.824L777.496 322.61C777.922 322.475 778.287 322.196 778.531 321.823C778.775 321.449 778.883 321.003 778.837 320.559Z" fill="#EB459F"/>
<path d="M751.346 329.698H751.228C751.063 329.683 750.903 329.636 750.756 329.559C750.609 329.482 750.479 329.376 750.373 329.249C750.268 329.122 750.188 328.975 750.139 328.817C750.09 328.659 750.072 328.492 750.087 328.328L754.235 284.795C754.266 284.462 754.429 284.155 754.686 283.942C754.944 283.729 755.276 283.626 755.609 283.658C755.942 283.689 756.248 283.852 756.462 284.109C756.675 284.367 756.777 284.699 756.745 285.032L752.598 328.565C752.567 328.875 752.422 329.163 752.19 329.372C751.959 329.581 751.658 329.697 751.346 329.698Z" fill="#D11583"/>
<path d="M742.297 220.212C744.03 219.511 744.326 216.204 742.959 212.826C741.592 209.448 739.079 207.277 737.346 207.978C735.614 208.68 735.317 211.987 736.684 215.365C738.051 218.743 740.564 220.914 742.297 220.212Z" fill="black"/>
<path d="M747.978 234.804H747.8C747.082 234.785 746.378 234.597 745.746 234.255C745.114 233.912 744.572 233.425 744.164 232.834C742.853 230.968 742.683 228.02 743.638 224.954C745.216 220.036 749.237 216.252 752.851 216.252H753.022C753.741 216.268 754.445 216.455 755.078 216.798C755.71 217.14 756.252 217.628 756.658 218.222C757.976 220.081 758.139 223.028 757.184 226.094C755.606 231.027 751.592 234.804 747.978 234.804ZM752.851 218.777C750.63 218.777 747.386 221.532 746.038 225.724C745.297 228.012 745.379 230.168 746.223 231.382C746.404 231.657 746.65 231.884 746.939 232.041C747.229 232.199 747.552 232.283 747.882 232.286H747.978C750.2 232.286 753.444 229.531 754.784 225.339C755.525 223.05 755.451 220.895 754.599 219.673C754.418 219.398 754.172 219.173 753.882 219.017C753.593 218.86 753.269 218.778 752.94 218.777H752.851Z" fill="white"/>
<path d="M766.625 234.804H766.447C765.728 234.785 765.025 234.597 764.393 234.255C763.761 233.912 763.219 233.425 762.811 232.834C761.5 230.967 761.329 228.02 762.285 224.954C763.892 219.955 768.002 216.141 771.676 216.259C772.394 216.276 773.099 216.463 773.731 216.806C774.363 217.148 774.905 217.636 775.312 218.229C776.623 220.088 776.793 223.036 775.838 226.102C774.26 231.027 770.239 234.804 766.625 234.804ZM771.498 218.777C769.276 218.777 766.032 221.532 764.684 225.724C763.944 228.012 764.025 230.168 764.877 231.382C765.058 231.658 765.303 231.885 765.593 232.042C765.882 232.2 766.206 232.284 766.536 232.286H766.625C768.846 232.286 772.09 229.531 773.438 225.339C774.179 223.05 774.097 220.895 773.253 219.673C773.07 219.399 772.822 219.174 772.532 219.017C772.241 218.861 771.917 218.779 771.587 218.777H771.498Z" fill="white"/>
<path d="M761.2 219.578C762.394 219.095 762.299 216.075 760.987 212.834C759.676 209.592 757.644 207.355 756.45 207.839C755.255 208.322 755.351 211.342 756.662 214.584C757.974 217.825 760.006 220.062 761.2 219.578Z" fill="black"/>
<path d="M773.386 253.66C764.869 253.926 754.538 250.653 746.724 244.254C738.911 237.855 742.014 237.04 746.946 236.974C751.879 236.907 775.415 237.714 782.266 238.766C789.116 239.818 790.279 253.149 773.386 253.66Z" fill="#912869"/>
<path d="M773.386 253.66C764.869 253.926 754.538 250.653 746.724 244.254C738.911 237.855 742.014 237.04 746.946 236.974C751.879 236.907 775.415 237.714 782.266 238.766C789.116 239.818 790.279 253.149 773.386 253.66Z" fill="#611B46"/>
<path d="M772.883 269.027C772.571 269.027 772.27 268.911 772.039 268.702C771.808 268.492 771.662 268.204 771.631 267.894L771.165 263.213C771.147 263.044 771.165 262.873 771.216 262.71C771.266 262.547 771.35 262.397 771.461 262.267C771.571 262.138 771.707 262.032 771.86 261.957C772.013 261.881 772.179 261.838 772.35 261.829C775.711 261.586 778.988 260.659 781.978 259.103C782.121 259.01 782.283 258.948 782.451 258.92C782.62 258.891 782.793 258.898 782.959 258.938C783.126 258.979 783.282 259.053 783.419 259.156C783.555 259.259 783.669 259.389 783.754 259.538C783.839 259.687 783.892 259.851 783.911 260.021C783.93 260.192 783.914 260.364 783.864 260.528C783.815 260.691 783.732 260.843 783.621 260.974C783.511 261.105 783.375 261.211 783.222 261.288C780.299 262.841 777.116 263.845 773.831 264.25L774.172 267.657C774.205 267.991 774.104 268.324 773.891 268.584C773.679 268.844 773.372 269.008 773.038 269.042L772.883 269.027Z" fill="black"/>
<path d="M778.017 253.119C771.24 246.565 762.064 241.625 745.008 242.788C759.657 256.215 774.891 253.978 778.017 253.119Z" fill="#EB459F"/>
<path d="M764.056 222.547H756.436V225.065H764.056V222.547Z" fill="white"/>
<path d="M744.837 226.598C744.675 226.597 744.514 226.567 744.363 226.509L711.776 213.326C711.289 213.126 710.759 213.049 710.235 213.101C709.71 213.154 709.206 213.334 708.767 213.627C708.329 213.919 707.968 214.315 707.718 214.779C707.468 215.243 707.336 215.761 707.333 216.289C707.333 216.906 707.512 217.51 707.847 218.029C708.182 218.548 708.659 218.959 709.221 219.214L711.362 220.192C711.65 220.339 711.87 220.593 711.977 220.899C712.083 221.205 712.068 221.54 711.933 221.835C711.799 222.13 711.556 222.361 711.255 222.481C710.954 222.602 710.618 222.601 710.318 222.48L708.177 221.51C706.78 220.91 705.678 219.779 705.114 218.367C704.55 216.954 704.57 215.376 705.17 213.978C705.77 212.58 706.901 211.479 708.314 210.915C709.726 210.351 711.305 210.371 712.702 210.971L745.289 224.146C745.562 224.255 745.788 224.455 745.929 224.713C746.07 224.971 746.116 225.27 746.06 225.558C746.004 225.846 745.849 226.106 745.621 226.291C745.394 226.477 745.109 226.578 744.815 226.576L744.837 226.598Z" fill="white"/>
<path d="M738.031 210.164C737.697 210.164 737.376 210.031 737.14 209.795C736.904 209.559 736.771 209.239 736.771 208.905C736.771 208.571 736.904 208.251 737.14 208.015C737.376 207.778 737.697 207.646 738.031 207.646C740.435 207.696 742.832 207.379 745.14 206.705C745.456 206.593 745.802 206.611 746.105 206.755C746.407 206.899 746.639 207.156 746.751 207.472C746.863 207.787 746.845 208.134 746.702 208.436C746.558 208.738 746.3 208.971 745.985 209.083C743.407 209.861 740.722 210.225 738.031 210.164Z" fill="black"/>
<path d="M756.953 210.097C756.635 210.073 756.337 209.929 756.121 209.695C755.904 209.461 755.783 209.154 755.783 208.834C755.783 208.515 755.904 208.208 756.121 207.974C756.337 207.74 756.635 207.596 756.953 207.572C758.327 207.61 759.69 207.321 760.93 206.727C761.22 206.56 761.564 206.515 761.887 206.602C762.21 206.689 762.485 206.901 762.652 207.19C762.819 207.48 762.864 207.824 762.777 208.147C762.69 208.47 762.479 208.745 762.189 208.912C760.568 209.732 758.769 210.139 756.953 210.097Z" fill="black"/>
<path d="M702.467 193.056C747.459 192.537 762.626 187.427 775.542 182.776C788.459 178.125 787.155 174.511 777.29 174.815C767.425 175.118 733.802 188.094 702.467 193.056Z" fill="#FFF4B3"/>
<path d="M691.359 273.426L691.144 285.846L697.262 283.425C697.262 283.425 730.167 269.701 738.032 267.783C744.127 266.302 753.185 269.568 764.464 273.841C775.744 278.114 772.707 282.054 769.219 285.883C765.731 289.712 765.842 289.372 747.275 289.372C711.948 314.908 701.039 329.875 686.634 329.875C677.91 329.875 670.444 326.076 664.919 308.835C659.794 292.838 669.644 283.921 691.359 273.426Z" fill="#29CC7A"/>
<path d="M814.721 287.653L795.754 264.85L763.619 296.985L786.422 315.952C786.082 318.055 786.422 319.759 787.459 320.833C790.91 324.276 800.894 319.877 809.766 311.005C818.639 302.132 823.045 292.142 819.594 288.69C818.528 287.624 816.824 287.313 814.721 287.653Z" fill="white"/>
<path d="M783.961 285.193C792.834 276.319 798.114 267.213 795.754 264.853C793.394 262.492 784.288 267.773 775.414 276.646C766.541 285.519 761.261 294.626 763.621 296.986C765.981 299.346 775.088 294.066 783.961 285.193Z" fill="white"/>
<path d="M781.797 283.029C789.832 274.995 795.248 267.384 793.895 266.031C792.541 264.677 784.93 270.093 776.896 278.128C768.861 286.162 763.445 293.773 764.799 295.127C766.152 296.48 773.763 291.064 781.797 283.029Z" fill="#BAE8FF"/>
<path d="M812.951 277.966C818.432 278.751 820.505 283.721 818.35 290.216C818.116 290.919 817.704 291.549 817.153 292.045C816.602 292.54 815.932 292.884 815.208 293.042C814.485 293.2 813.732 293.168 813.025 292.948C812.318 292.727 811.68 292.327 811.174 291.786C809.935 290.457 809.183 288.747 809.039 286.936C808.895 285.125 809.368 283.318 810.381 281.81L812.951 277.966Z" fill="#29CC7A"/>
<path d="M803.523 274.211C803.212 278.907 800.494 283.639 798.487 286.543C797.91 287.386 797.646 288.405 797.742 289.422C797.838 290.44 798.288 291.392 799.013 292.112L799.954 293.052C800.627 293.722 801.537 294.098 802.486 294.098C803.436 294.098 804.346 293.722 805.019 293.052C808.93 289.157 811.366 285.646 812.67 280.003C814.255 273.204 809.256 268.435 800.672 270.79L803.523 274.211Z" fill="#29CC7A"/>
<path d="M702.466 193.056L717.781 191.812L754.76 184.509L745.562 175.437H701.592L702.466 193.056Z" fill="#FFF4B3"/>
<path d="M776.867 239.625C774.423 239.41 771.327 239.21 768.076 239.04C769.091 244.335 771.624 247.15 773.794 246.254C775.749 245.439 776.675 240.729 776.867 239.625Z" fill="white"/>
<path d="M749.68 238.403C750.783 244.521 753.161 247.705 755.219 246.609C756.989 245.668 757.915 240.603 758.219 238.618C754.664 238.492 751.561 238.418 749.68 238.403Z" fill="white"/>
<path d="M764.358 294.437C764.426 294.692 764.571 294.919 764.773 295.089C764.801 295.123 764.833 295.153 764.869 295.178L764.936 295.222C766.602 296.148 774.001 290.823 781.792 283.032L781.977 282.847L777.022 277.996L772.993 273.923L767.735 274.078L757.411 270.16L756.967 271.071C761.336 272.501 762.232 288.372 764.358 294.437Z" fill="#EB459F"/>
<path d="M765.938 273.249C768.507 277.981 771.618 286.372 771.648 286.461C771.721 286.676 771.86 286.863 772.044 286.995C772.229 287.128 772.45 287.2 772.677 287.202C772.808 287.201 772.938 287.179 773.062 287.135C773.334 287.032 773.555 286.825 773.676 286.56C773.796 286.296 773.807 285.994 773.706 285.721C773.581 285.38 770.885 278.1 768.374 273.182L765.938 273.249Z" fill="#D11583"/>
<path d="M767.426 325.891C767.352 325.884 767.278 325.884 767.204 325.891L757.539 328.765C757.355 328.823 757.189 328.929 757.059 329.072C756.929 329.215 756.839 329.39 756.799 329.579C756.759 329.771 756.77 329.969 756.831 330.155C756.892 330.341 757.001 330.508 757.147 330.638L765.679 338.148C765.786 338.243 765.912 338.317 766.048 338.363C766.185 338.41 766.329 338.43 766.472 338.421C766.616 338.412 766.757 338.375 766.886 338.311C767.015 338.248 767.131 338.16 767.226 338.052C767.322 337.944 767.395 337.818 767.442 337.682C767.489 337.546 767.508 337.402 767.499 337.258C767.49 337.114 767.453 336.973 767.39 336.844C767.326 336.715 767.238 336.599 767.13 336.504L760.087 330.305L767.634 328.083L767.426 325.891Z" fill="#D11583"/>
<path d="M673.012 295.163C672.726 295.165 672.449 295.069 672.225 294.892C672.001 294.715 671.843 294.467 671.779 294.189C671.714 293.911 671.746 293.619 671.869 293.361C671.992 293.104 672.199 292.895 672.456 292.771C672.516 292.771 679.055 289.498 690.268 284.261C690.418 284.191 690.581 284.152 690.746 284.144C690.912 284.137 691.077 284.163 691.233 284.22C691.389 284.276 691.532 284.363 691.654 284.475C691.776 284.587 691.875 284.722 691.945 284.872C692.015 285.023 692.055 285.185 692.062 285.351C692.07 285.517 692.044 285.682 691.987 285.838C691.931 285.994 691.844 286.137 691.732 286.259C691.62 286.381 691.485 286.48 691.334 286.55C680.151 291.734 673.634 295 673.56 295.03C673.389 295.114 673.202 295.16 673.012 295.163Z" fill="black"/>
<path d="M700.925 192.367C700.606 192.371 700.298 192.254 700.062 192.04C699.827 191.825 699.681 191.53 699.655 191.212C699.628 190.895 699.723 190.579 699.921 190.329C700.118 190.079 700.403 189.912 700.718 189.864C726.987 185.465 737.748 182.961 759.633 177.436C759.957 177.355 760.3 177.406 760.587 177.577C760.874 177.749 761.081 178.027 761.162 178.351C761.244 178.675 761.193 179.018 761.021 179.305C760.85 179.592 760.572 179.799 760.247 179.88C738.288 185.428 727.498 187.938 701.132 192.352C701.064 192.365 700.994 192.37 700.925 192.367Z" fill="#FFC619"/>
<path d="M775.638 299.274L789.302 311.812C789.712 312.186 790.235 312.414 790.788 312.46C791.342 312.505 791.895 312.366 792.361 312.064C792.674 311.857 792.937 311.582 793.13 311.26C793.323 310.937 793.441 310.576 793.475 310.202C793.51 309.827 793.459 309.45 793.328 309.098C793.196 308.746 792.987 308.428 792.716 308.168L779.385 295.415C778.986 295.033 778.472 294.794 777.922 294.735C777.373 294.676 776.82 294.801 776.349 295.089L775.993 295.311C775.665 295.515 775.389 295.792 775.187 296.12C774.984 296.448 774.861 296.819 774.826 297.204C774.792 297.588 774.847 297.975 774.988 298.334C775.129 298.694 775.351 299.015 775.638 299.274Z" fill="#BAE8FF"/>
<path d="M809.81 290.357C809.581 290.355 809.357 290.29 809.161 290.171C808.965 290.052 808.806 289.881 808.7 289.678C808.593 289.475 808.544 289.247 808.557 289.019C808.57 288.79 808.644 288.569 808.773 288.379C811.81 283.987 812.387 281.062 812.721 278.44C812.763 278.108 812.935 277.807 813.2 277.602C813.464 277.397 813.799 277.306 814.131 277.348C814.463 277.39 814.765 277.563 814.97 277.827C815.175 278.092 815.266 278.427 815.224 278.759C814.868 281.558 814.209 284.958 810.847 289.816C810.731 289.984 810.576 290.121 810.395 290.215C810.215 290.309 810.014 290.358 809.81 290.357Z" fill="black"/>
<path d="M915.302 353.923H584.311V457.2H915.302V353.923Z" fill="#5865F2"/>
<path d="M584.311 385.813L915.302 359.174V353.923H584.311V385.813Z" fill="#4B59F2"/>
<path d="M825.69 353.923H823.275V457.2H825.69V353.923Z" fill="#3543DE"/>
<path d="M795.821 353.923H793.406V457.2H795.821V353.923Z" fill="#3543DE"/>
<path d="M765.951 353.923H763.537V457.2H765.951V353.923Z" fill="#3543DE"/>
<path d="M736.076 353.923H733.662V457.2H736.076V353.923Z" fill="#3543DE"/>
<path d="M706.207 353.923H703.793V457.2H706.207V353.923Z" fill="#3543DE"/>
<path d="M676.338 353.923H673.924V457.2H676.338V353.923Z" fill="#3543DE"/>
<path d="M646.469 353.923H644.055V457.2H646.469V353.923Z" fill="#3543DE"/>
<path d="M927.538 356.959H577.194C576.782 356.98 576.37 356.916 575.984 356.773C575.597 356.629 575.244 356.408 574.945 356.124C574.647 355.84 574.409 355.498 574.246 355.119C574.084 354.74 574 354.332 574 353.919C574 353.507 574.084 353.099 574.246 352.72C574.409 352.341 574.647 351.999 574.945 351.714C575.244 351.43 575.597 351.209 575.984 351.066C576.37 350.922 576.782 350.859 577.194 350.879H927.538C928.318 350.918 929.054 351.255 929.592 351.821C930.131 352.386 930.431 353.138 930.431 353.919C930.431 354.7 930.131 355.452 929.592 356.018C929.054 356.584 928.318 356.921 927.538 356.959Z" fill="#2835BD"/>
<path d="M806.664 157.499C805.783 156.928 805.034 156.177 804.466 155.295C803.898 154.412 803.524 153.42 803.368 152.382L802.828 148.812C802.815 148.727 802.772 148.649 802.707 148.594C802.641 148.538 802.558 148.507 802.472 148.508C802.386 148.507 802.303 148.538 802.237 148.594C802.172 148.649 802.129 148.727 802.117 148.812L801.583 152.382C801.428 153.42 801.054 154.412 800.486 155.295C799.917 156.177 799.168 156.928 798.288 157.499L797.821 157.796C797.77 157.828 797.729 157.873 797.7 157.926C797.672 157.979 797.657 158.039 797.658 158.099C797.658 158.158 797.673 158.217 797.701 158.268C797.73 158.32 797.771 158.364 797.821 158.395L798.288 158.699C799.167 159.269 799.916 160.019 800.484 160.9C801.052 161.781 801.427 162.773 801.583 163.809L802.117 167.379C802.129 167.464 802.172 167.542 802.237 167.597C802.303 167.653 802.386 167.684 802.472 167.683C802.558 167.684 802.641 167.653 802.707 167.597C802.772 167.542 802.815 167.464 802.828 167.379L803.368 163.809C803.521 162.772 803.894 161.779 804.463 160.897C805.031 160.016 805.782 159.266 806.664 158.699L807.131 158.395C807.181 158.364 807.222 158.32 807.25 158.268C807.279 158.217 807.294 158.158 807.293 158.099C807.294 158.039 807.28 157.979 807.251 157.926C807.223 157.873 807.181 157.828 807.131 157.796L806.664 157.499Z" fill="#5865F2"/>
<path d="M785.94 123.128C784.692 122.325 783.629 121.265 782.823 120.018C782.017 118.772 781.487 117.368 781.267 115.899L780.527 110.841C780.507 110.721 780.446 110.612 780.354 110.534C780.261 110.455 780.144 110.412 780.023 110.412C779.902 110.412 779.784 110.455 779.692 110.534C779.6 110.612 779.539 110.721 779.519 110.841L778.779 115.899C778.559 117.368 778.029 118.772 777.223 120.018C776.417 121.265 775.354 122.325 774.105 123.128L773.454 123.55C773.382 123.596 773.323 123.66 773.281 123.735C773.24 123.81 773.218 123.894 773.217 123.979C773.216 124.065 773.238 124.15 773.279 124.225C773.321 124.3 773.381 124.364 773.454 124.409L774.105 124.831C775.354 125.636 776.416 126.698 777.222 127.946C778.027 129.193 778.558 130.598 778.779 132.067L779.519 137.118C779.537 137.239 779.598 137.35 779.69 137.43C779.782 137.51 779.901 137.554 780.023 137.555C780.145 137.554 780.263 137.51 780.356 137.43C780.448 137.35 780.509 137.239 780.527 137.118L781.267 132.067C781.488 130.598 782.018 129.193 782.824 127.946C783.63 126.698 784.692 125.636 785.94 124.831L786.592 124.409C786.665 124.364 786.725 124.3 786.766 124.225C786.808 124.15 786.83 124.065 786.829 123.979C786.828 123.894 786.806 123.81 786.765 123.735C786.723 123.66 786.664 123.596 786.592 123.55L785.94 123.128Z" fill="#8CD9FF"/>
<path d="M662.949 260.821C662.068 260.252 661.318 259.502 660.748 258.621C660.179 257.74 659.803 256.748 659.646 255.711L659.112 252.134C659.098 252.05 659.055 251.973 658.99 251.917C658.925 251.862 658.842 251.831 658.757 251.83C658.671 251.831 658.589 251.862 658.524 251.917C658.459 251.973 658.415 252.05 658.401 252.134L657.868 255.711C657.711 256.748 657.335 257.74 656.766 258.621C656.196 259.502 655.446 260.252 654.565 260.821L654.098 261.118C654.048 261.15 654.006 261.195 653.978 261.248C653.949 261.301 653.935 261.361 653.936 261.421C653.935 261.481 653.95 261.541 653.979 261.594C654.007 261.647 654.048 261.692 654.098 261.725L654.565 262.021C655.446 262.59 656.196 263.34 656.766 264.221C657.335 265.102 657.711 266.094 657.868 267.131L658.401 270.701C658.414 270.787 658.456 270.865 658.522 270.922C658.587 270.979 658.67 271.011 658.757 271.012C658.844 271.011 658.927 270.979 658.992 270.922C659.057 270.865 659.1 270.787 659.112 270.701L659.646 267.131C659.803 266.094 660.179 265.102 660.748 264.221C661.318 263.34 662.068 262.59 662.949 262.021L663.408 261.725C663.458 261.692 663.499 261.647 663.528 261.594C663.556 261.541 663.571 261.481 663.571 261.421C663.572 261.361 663.557 261.301 663.529 261.248C663.5 261.195 663.459 261.15 663.408 261.118L662.949 260.821Z" fill="#FFF4B3"/>
<path d="M814.368 56H666.999C650.5 56 637 69.479 637 85.9533V427.047C637 443.521 650.5 457 666.999 457H813.993C830.493 457 843.992 443.521 843.992 427.047V85.9533C844.367 69.479 830.868 56 814.368 56ZM833.118 427.047C833.118 437.53 824.868 445.768 814.368 445.768H666.999C656.499 445.768 648.25 437.53 648.25 427.047V85.9533C648.25 75.4697 656.499 67.2325 666.999 67.2325H674.874H677.124C682.748 67.2325 687.248 71.7255 687.248 77.3417C687.248 82.958 691.748 87.8254 697.748 87.8254H783.245C788.869 87.8254 793.369 83.3324 793.369 77.7162C793.369 72.0999 797.869 67.6069 803.494 67.6069H804.994H813.618C824.118 67.6069 832.368 75.8441 832.368 86.3277V427.047H833.118Z" fill="#23272A"/>
</g>
<g filter="url(#filter0_d)">
<circle cx="712" cy="414" r="24" fill="#DBE7FF"/>
<path d="M721.526 410.149C721.231 409.966 720.862 409.951 720.553 410.105L718 411.382V409C718 407.897 717.103 407 716 407H704C702.897 407 702 407.897 702 409V419C702 420.104 702.897 421 704 421H716C717.103 421 718 420.104 718 419V416.618L720.553 417.894C720.694 417.965 720.847 418 721 418C721.183 418 721.365 417.949 721.526 417.851C721.82 417.668 722 417.347 722 417V411C722 410.653 721.82 410.332 721.526 410.149Z" fill="#1C1B29"/>
</g>
<g filter="url(#filter1_d)">
<circle cx="769" cy="414" r="24" fill="#E7366B"/>
<path fill-rule="evenodd" clip-rule="evenodd" d="M778.117 403.116L779.884 404.884L776.768 408L779.884 411.116L778.117 412.884L775 409.768L771.884 412.884L770.117 411.116L773.233 408L770.117 404.884L771.884 403.116L775 406.232L778.117 403.116ZM775 424H770C763.925 424 759 419.075 759 413V408C759 407.447 759.448 407 760 407H764C764.553 407 765 407.447 765 408V412C765 412.553 764.553 413 764 413H763C763.063 416.938 766 420 770 420V419C770 418.447 770.447 418 771 418H775C775.553 418 776 418.447 776 419V423C776 423.553 775.553 424 775 424Z" fill="white"/>
</g>
<rect x="27" y="79" width="639" height="394" rx="8" fill="#292841"/>
<mask id="mask1" mask-type="alpha" maskUnits="userSpaceOnUse" x="487" y="272" width="163" height="96">
<rect x="487" y="272" width="163" height="96" rx="8" fill="#C4C4C4"/>
</mask>
<g mask="url(#mask1)">
<path d="M657.67 268H482.215V371.335H657.67V268Z" fill="#5865F2"/>
<path d="M556.942 370.959C556.873 370.796 549.847 354.348 535.415 349.501C527.254 346.759 518.24 348.199 508.635 353.785L508.227 354.034L507.893 353.663C505.812 351.345 499.626 345.682 496.06 347.273C494.019 348.179 491.873 351.912 493.203 364.545L493.297 365.422L492.444 365.202C492.359 365.202 484.145 363.105 480.713 366.075C479.526 367.104 479.061 368.601 479.285 370.657L478.061 370.792C477.792 368.344 478.412 366.442 479.906 365.149C483.17 362.342 489.572 363.341 491.894 363.823C490.886 353.475 492.085 347.693 495.566 346.151C500.148 344.111 506.877 350.794 508.476 352.484C518.24 346.914 527.446 345.523 535.843 348.346C550.802 353.373 558.028 370.319 558.097 370.486L556.942 370.959Z" fill="#808AFF"/>
<path d="M564.41 371.335C579.022 341.177 587.183 304.768 587.183 304.768L587.84 301.296L619.797 312.831L617.255 371.335H564.41Z" fill="#2835BD"/>
<path d="M570.719 371.335C583.539 344.878 590.712 312.9 590.712 312.9L592.455 304.066L617.096 312.9V371.335H570.719Z" fill="black"/>
<path d="M566.078 371.339H576.785V282.82H566.078V371.339Z" fill="#2835BD"/>
<path d="M566.078 294.245C567.677 294.986 569.455 295.254 571.202 295.017C572.949 294.781 574.591 294.05 575.936 292.911L576.785 292.188V288.165L566.078 286.178V294.245Z" fill="black"/>
<path d="M582.517 371.335C575.132 369.568 565.168 359.539 565.168 359.539C565.168 359.539 561.699 367.352 559.639 371.335H552.225C548.83 371.335 546.157 368.103 546.512 364.729C546.851 361.501 548.385 357.882 550.711 352.598C554.587 343.792 555.832 339.178 563.482 339.178H570.362L586.165 332.168C596.399 337.472 603.413 340.581 609.386 344.196C618.285 349.574 625.238 360.587 618.387 371.335H582.517Z" fill="#FFC619"/>
<path d="M657.669 312.9V371.335H613.703C600.883 344.878 587.838 301.296 587.838 301.296L657.669 312.9Z" fill="#2835BD"/>
<path d="M612.105 314.696L657.671 322.395V371.335H632.801C626.86 357.755 612.105 314.696 612.105 314.696Z" fill="#2835BD"/>
<path d="M623.035 367.214C622.933 367.214 622.833 367.188 622.743 367.14C622.654 367.091 622.577 367.021 622.521 366.936C615.708 356.395 610.3 345.01 606.432 333.069C606.409 332.993 606.401 332.912 606.409 332.833C606.417 332.753 606.441 332.676 606.479 332.605C606.517 332.535 606.568 332.472 606.63 332.422C606.692 332.371 606.764 332.333 606.84 332.31C606.996 332.264 607.163 332.282 607.306 332.358C607.448 332.434 607.555 332.564 607.603 332.718C611.44 344.539 616.799 355.81 623.545 366.247C623.633 366.383 623.664 366.548 623.63 366.706C623.596 366.864 623.501 367.003 623.366 367.091C623.271 367.164 623.155 367.207 623.035 367.214Z" fill="black"/>
<path d="M632.597 358.551C634.277 358.549 635.941 358.879 637.493 359.521C639.046 360.162 640.457 361.104 641.646 362.291C642.834 363.478 643.777 364.888 644.421 366.44C645.065 367.991 645.396 369.655 645.397 371.335H619.801C619.801 369.655 620.132 367.992 620.775 366.44C621.418 364.888 622.361 363.478 623.549 362.291C624.738 361.104 626.148 360.162 627.701 359.521C629.253 358.879 630.917 358.549 632.597 358.551Z" fill="#404EED"/>
<path d="M614.32 371.335C601.499 344.878 594.326 312.9 594.326 312.9L614.32 371.335Z" fill="#2835BD"/>
<path d="M589.593 371.335C589.638 371.221 594.163 359.33 596.53 351.916L596.681 351.443C598.288 346.441 599.574 342.417 599.41 338.847L600.512 339.398C600.512 342.98 599.263 346.934 597.709 351.774L597.554 352.247C595.387 358.992 591.458 369.409 590.707 371.335H589.564C589.585 371.31 589.585 371.359 589.593 371.335Z" fill="black"/>
<path d="M548.259 369.437C547.856 369.038 547.55 368.551 547.362 368.016C547.175 367.48 547.112 366.908 547.178 366.345C547.655 361.607 550.116 356.001 552.67 350.182C553.559 348.142 554.481 346.053 555.31 344.005L556.309 344.413C555.493 346.477 554.551 348.583 553.657 350.619C550.536 357.682 547.573 364.439 548.259 369.437Z" fill="white"/>
<path d="M570.359 352.202C571.612 357.343 573.391 364.035 575.684 371.335H589.557C589.557 371.335 594.111 359.469 596.523 351.957C598.934 344.445 600.729 339.133 598.314 334.167C595.898 329.201 592.042 328.862 586.179 332.168L587.048 341.532L582.658 354.063L580.548 347.436C576.243 344.547 570.759 346.143 570.359 352.202Z" fill="#FFC619"/>
<path d="M588.222 366.871L589.348 363.582C591.797 356.429 593.918 350.252 595.371 344.662C596.595 340.026 597.546 334.542 596.95 332.061C597.443 332.655 597.865 333.304 598.207 333.996C598.207 337.554 597.048 342.503 596.416 344.935C594.951 350.562 592.829 356.768 590.368 363.929L589.242 367.218C588.769 368.609 588.3 370.184 587.839 371.335H586.676C587.182 370.152 587.675 368.47 588.222 366.871Z" fill="white"/>
<path d="M578.204 371.335C576.703 366.251 574.499 358.449 571.676 348.783C571.656 348.715 571.65 348.643 571.658 348.573C571.665 348.502 571.687 348.434 571.721 348.372C571.755 348.31 571.801 348.255 571.856 348.211C571.912 348.166 571.975 348.133 572.043 348.114C572.111 348.094 572.182 348.088 572.253 348.095C572.323 348.103 572.392 348.124 572.454 348.159C572.516 348.193 572.571 348.239 572.615 348.294C572.659 348.349 572.692 348.413 572.712 348.481C575.568 358.343 577.825 366.251 579.326 371.331L578.204 371.335Z" fill="white"/>
<path d="M572.814 311.501C581.158 310.313 584.312 310.925 587.466 317.948C590.621 324.97 588.993 330.87 583.794 338.398C578.596 345.926 565.987 344.604 561.103 342.772C556.219 340.94 552.049 336.158 549.707 329.344C547.365 322.53 548.075 315.083 551.641 311.019C555.207 306.955 561.205 303.499 566.6 305.225C571.994 306.951 572.814 311.501 572.814 311.501Z" fill="#DE3A93"/>
<path d="M568.82 322.048C568.661 322.048 568.507 321.989 568.387 321.884C568.267 321.779 568.189 321.634 568.168 321.476C568.147 321.318 568.183 321.157 568.271 321.024C568.358 320.891 568.491 320.794 568.645 320.751L571.146 320.065C571.23 320.042 571.318 320.036 571.404 320.047C571.49 320.058 571.574 320.085 571.649 320.128C571.725 320.171 571.791 320.229 571.844 320.297C571.898 320.366 571.937 320.445 571.96 320.528C571.983 320.612 571.99 320.7 571.979 320.786C571.968 320.872 571.94 320.956 571.897 321.031C571.854 321.107 571.797 321.173 571.728 321.227C571.659 321.28 571.581 321.319 571.497 321.342L568.992 322.028C568.936 322.043 568.878 322.05 568.82 322.048Z" fill="black"/>
<path d="M571.269 323.427H571.183L568.613 323.101C568.523 323.095 568.435 323.071 568.355 323.03C568.275 322.988 568.204 322.932 568.147 322.862C568.09 322.793 568.047 322.712 568.022 322.626C567.997 322.54 567.99 322.449 568.001 322.36C568.012 322.271 568.042 322.184 568.087 322.107C568.133 322.029 568.193 321.962 568.266 321.909C568.339 321.855 568.421 321.818 568.509 321.797C568.596 321.777 568.687 321.775 568.776 321.791L571.35 322.118C571.519 322.136 571.674 322.219 571.784 322.349C571.893 322.479 571.948 322.646 571.937 322.816C571.927 322.985 571.852 323.144 571.727 323.259C571.603 323.375 571.439 323.438 571.269 323.436V323.427Z" fill="black"/>
<path d="M550.458 321.852C550.329 321.852 550.203 321.814 550.095 321.742L548.104 320.428C547.969 320.327 547.878 320.179 547.85 320.013C547.821 319.847 547.856 319.676 547.949 319.536C548.042 319.395 548.184 319.296 548.348 319.257C548.512 319.218 548.684 319.243 548.83 319.327L550.821 320.641C550.945 320.717 551.041 320.832 551.093 320.967C551.145 321.103 551.151 321.252 551.109 321.392C551.068 321.531 550.982 321.653 550.864 321.739C550.746 321.824 550.604 321.868 550.458 321.865V321.852Z" fill="black"/>
<path d="M550.568 322.954C550.535 322.958 550.5 322.958 550.466 322.954L548.426 322.636C548.257 322.605 548.106 322.509 548.007 322.368C547.907 322.228 547.866 322.054 547.893 321.884C547.919 321.714 548.011 321.56 548.149 321.457C548.287 321.354 548.459 321.308 548.63 321.33L550.67 321.648C550.835 321.674 550.983 321.761 551.086 321.892C551.189 322.022 551.239 322.187 551.226 322.352C551.213 322.518 551.138 322.673 551.016 322.786C550.895 322.899 550.735 322.962 550.568 322.962V322.954Z" fill="black"/>
<path d="M575.552 304.772C576.936 304.797 578.001 305.735 578.054 306.404C578.107 307.073 575.605 309.163 572.39 313.182L571.533 312.851C574.565 305.074 574.169 304.748 575.552 304.772Z" fill="black"/>
<path d="M574.553 315.357C574.406 315.359 574.262 315.314 574.144 315.226C574.124 315.201 571.268 313.043 568.791 311.529C568.642 311.437 568.535 311.29 568.494 311.119C568.454 310.948 568.483 310.769 568.575 310.619C568.667 310.47 568.814 310.363 568.985 310.323C569.156 310.282 569.335 310.311 569.485 310.403C572.006 311.953 574.92 314.153 574.952 314.173C575.063 314.257 575.145 314.374 575.185 314.507C575.225 314.64 575.223 314.783 575.178 314.914C575.133 315.046 575.047 315.16 574.933 315.24C574.82 315.32 574.683 315.362 574.544 315.361L574.553 315.357Z" fill="black"/>
<path d="M570.358 352.202C569.542 348.832 568.946 345.988 568.587 343.752C567.685 338.096 569.427 337.19 571.892 336.444C574.279 335.717 576.213 334.338 577.417 330.001C578.62 325.663 579.347 325.835 580.767 326.524C582.361 327.384 583.719 328.622 584.721 330.131C585.537 331.466 585.431 333.053 583.905 336.962C582.898 339.4 581.291 341.543 579.233 343.193L580.546 347.436C575.495 347.191 572.455 347.889 570.358 352.202Z" fill="#FF78B9"/>
<path d="M562.071 349.529C562.826 346.265 563.703 342.817 562.071 341.887C559.737 340.549 555.298 338.541 552.584 332.531C552.452 332.23 552.206 331.994 551.9 331.874C551.594 331.754 551.254 331.76 550.952 331.89L550.781 331.959C550.664 332.009 550.559 332.081 550.471 332.172C550.383 332.263 550.314 332.37 550.268 332.488C550.222 332.606 550.2 332.732 550.203 332.858C550.207 332.985 550.235 333.109 550.287 333.224C551.618 336.101 553.238 338.836 555.122 341.385C554.744 342.946 554.247 344.477 553.637 345.963C556.685 347.391 562.071 349.529 562.071 349.529Z" fill="#FF78B9"/>
<path d="M578.331 338.957C578.228 338.859 578.167 338.724 578.162 338.581C578.158 338.438 578.21 338.299 578.307 338.194C579.307 337.149 580.195 336.002 580.955 334.771C582.224 332.629 583.436 328.736 582.559 327.732C582.869 327.993 583.171 328.271 583.452 328.548C583.609 328.708 583.727 328.901 583.798 329.113C583.869 329.325 583.89 329.551 583.86 329.772C583.526 331.723 582.855 333.601 581.877 335.322C581.075 336.618 580.141 337.828 579.09 338.933C579.042 338.985 578.984 339.026 578.919 339.056C578.855 339.085 578.785 339.101 578.714 339.104C578.643 339.106 578.572 339.094 578.506 339.069C578.44 339.044 578.379 339.006 578.327 338.957H578.331Z" fill="black"/>
<path d="M578.658 344.013H578.585C576.722 343.778 574.844 343.679 572.966 343.715C572.88 343.72 572.793 343.707 572.711 343.679C572.629 343.65 572.553 343.605 572.488 343.547C572.423 343.489 572.371 343.419 572.333 343.341C572.295 343.262 572.273 343.177 572.269 343.091C572.264 343.004 572.276 342.917 572.305 342.835C572.334 342.753 572.378 342.677 572.436 342.612C572.494 342.548 572.564 342.495 572.643 342.457C572.721 342.42 572.806 342.398 572.893 342.393C574.843 342.351 576.793 342.453 578.728 342.699C578.895 342.718 579.049 342.8 579.159 342.928C579.268 343.057 579.324 343.222 579.315 343.391C579.306 343.559 579.233 343.718 579.111 343.834C578.989 343.95 578.827 344.016 578.658 344.017V344.013Z" fill="black"/>
<path d="M584.914 361.954C584.773 361.953 584.636 361.908 584.522 361.824C584.409 361.74 584.324 361.623 584.282 361.489L580.132 348.293C580.105 348.21 580.095 348.123 580.102 348.036C580.109 347.95 580.133 347.865 580.172 347.788C580.212 347.71 580.266 347.641 580.332 347.585C580.399 347.528 580.475 347.485 580.558 347.459C580.641 347.432 580.728 347.422 580.815 347.429C580.902 347.436 580.986 347.459 581.064 347.499C581.141 347.539 581.21 347.593 581.267 347.659C581.323 347.726 581.366 347.802 581.393 347.885L585.55 361.093C585.58 361.192 585.586 361.296 585.569 361.398C585.552 361.5 585.511 361.596 585.45 361.68C585.389 361.763 585.31 361.831 585.218 361.879C585.127 361.926 585.025 361.952 584.922 361.954H584.914Z" fill="black"/>
<path d="M582.64 354.724C582.565 354.723 582.491 354.711 582.42 354.687C582.338 354.659 582.262 354.615 582.197 354.557C582.132 354.5 582.079 354.43 582.041 354.352C582.003 354.274 581.981 354.189 581.976 354.102C581.971 354.015 581.983 353.928 582.012 353.846L586.048 342.324C586.105 342.158 586.227 342.022 586.385 341.946C586.543 341.87 586.725 341.86 586.89 341.918C587.056 341.975 587.191 342.097 587.268 342.255C587.344 342.413 587.354 342.595 587.296 342.76L583.257 354.283C583.212 354.411 583.129 354.522 583.018 354.601C582.908 354.68 582.776 354.723 582.64 354.724Z" fill="black"/>
<path d="M558.212 366.153C558.15 366.153 558.088 366.144 558.028 366.128C557.86 366.079 557.719 365.966 557.634 365.813C557.55 365.66 557.528 365.48 557.575 365.312C557.604 365.222 560.166 356.262 561.313 349.942C561.323 349.852 561.351 349.765 561.397 349.686C561.442 349.607 561.503 349.539 561.575 349.485C561.648 349.431 561.731 349.392 561.819 349.372C561.907 349.351 561.999 349.349 562.088 349.365C562.177 349.382 562.262 349.416 562.337 349.466C562.413 349.517 562.477 349.582 562.526 349.658C562.575 349.735 562.607 349.82 562.622 349.91C562.637 349.999 562.633 350.09 562.61 350.178C561.455 356.56 558.873 365.586 558.848 365.684C558.807 365.82 558.722 365.939 558.608 366.024C558.493 366.108 558.354 366.154 558.212 366.153Z" fill="black"/>
<path d="M615.629 354.246C616.76 354.246 617.879 354.469 618.924 354.902C619.968 355.334 620.917 355.969 621.717 356.768C622.516 357.567 623.151 358.517 623.583 359.561C624.016 360.606 624.239 361.725 624.239 362.856V371.335H607.02V362.856C607.02 360.572 607.927 358.383 609.541 356.768C611.156 355.153 613.346 354.246 615.629 354.246Z" fill="#404EED"/>
<path d="M607.021 362.856C608.135 362.855 609.239 363.073 610.268 363.499C611.298 363.924 612.234 364.549 613.023 365.336C613.811 366.124 614.437 367.059 614.864 368.088C615.291 369.117 615.511 370.22 615.512 371.335H598.529C598.529 370.22 598.749 369.117 599.176 368.087C599.603 367.058 600.228 366.122 601.017 365.335C601.806 364.547 602.742 363.923 603.772 363.498C604.802 363.072 605.906 362.854 607.021 362.856Z" fill="#404EED"/>
<path d="M580.539 291.748C580.412 291.748 580.285 291.739 580.159 291.719C575.638 291.07 571.219 290.385 567.024 289.679C566.337 289.558 565.726 289.17 565.324 288.6C564.922 288.03 564.761 287.324 564.876 286.636C564.992 285.948 565.375 285.334 565.942 284.927C566.508 284.52 567.213 284.354 567.902 284.464C572.051 285.162 576.426 285.839 580.91 286.48C581.575 286.571 582.18 286.912 582.604 287.433C583.027 287.954 583.236 288.616 583.189 289.286C583.141 289.955 582.841 290.582 582.349 291.038C581.857 291.495 581.21 291.747 580.539 291.744V291.748Z" fill="black"/>
<path d="M552.812 315.034C552.638 315.033 552.468 314.987 552.318 314.9C552.168 314.813 552.044 314.688 551.957 314.538C551.87 314.388 551.823 314.218 551.822 314.044C551.821 313.871 551.866 313.7 551.951 313.549C552.106 313.284 552.269 313.018 552.441 312.757C552.599 312.571 552.82 312.45 553.062 312.417C553.305 312.383 553.55 312.441 553.753 312.578C553.955 312.715 554.1 312.922 554.159 313.159C554.218 313.396 554.187 313.647 554.073 313.863C553.926 314.079 553.787 314.304 553.665 314.532C553.578 314.683 553.454 314.808 553.305 314.896C553.155 314.984 552.985 315.032 552.812 315.034Z" fill="#FFA8D2"/>
<path d="M555.216 312.051C555.01 312.059 554.807 312.002 554.635 311.888C554.463 311.775 554.331 311.611 554.257 311.419C554.182 311.227 554.169 311.017 554.22 310.817C554.27 310.617 554.382 310.438 554.539 310.305C555.973 309.015 557.676 308.061 559.525 307.51C559.65 307.473 559.781 307.461 559.91 307.475C560.04 307.488 560.165 307.527 560.28 307.589C560.394 307.652 560.495 307.736 560.577 307.837C560.659 307.938 560.72 308.054 560.757 308.179C560.794 308.304 560.806 308.435 560.793 308.564C560.779 308.694 560.74 308.819 560.678 308.934C560.616 309.048 560.532 309.149 560.43 309.231C560.329 309.313 560.213 309.374 560.088 309.411C558.522 309.877 557.08 310.686 555.865 311.778C555.69 311.946 555.459 312.044 555.216 312.051Z" fill="#FFA8D2"/>
<path d="M567.796 289.777C567.648 289.777 567.501 289.764 567.355 289.74C555.93 287.826 537.826 283.571 529.192 281.294C528.517 281.112 527.942 280.67 527.592 280.065C527.242 279.46 527.146 278.741 527.324 278.066C527.503 277.39 527.941 276.812 528.544 276.459C529.147 276.106 529.866 276.006 530.542 276.181C539.078 278.429 556.958 282.64 568.228 284.521C568.878 284.636 569.461 284.99 569.864 285.512C570.266 286.035 570.46 286.689 570.405 287.346C570.351 288.003 570.054 288.617 569.571 289.067C569.089 289.516 568.455 289.769 567.796 289.777Z" fill="#2835BD"/>
<path d="M529.689 297.415H529.551C529.466 297.397 529.385 297.362 529.314 297.312C529.242 297.263 529.181 297.2 529.134 297.126C529.087 297.053 529.055 296.972 529.04 296.886C529.024 296.8 529.026 296.713 529.045 296.628L532.55 280.392C532.568 280.307 532.603 280.227 532.652 280.155C532.701 280.084 532.764 280.023 532.837 279.975C532.91 279.928 532.992 279.896 533.077 279.88C533.162 279.864 533.25 279.866 533.335 279.884C533.42 279.902 533.501 279.937 533.572 279.986C533.644 280.036 533.705 280.099 533.752 280.172C533.799 280.244 533.831 280.326 533.847 280.411C533.863 280.497 533.861 280.585 533.843 280.669L530.338 296.905C530.303 297.051 530.22 297.18 530.102 297.273C529.985 297.366 529.839 297.416 529.689 297.415Z" fill="black"/>
<path d="M526.384 296.289V294.171H540.041C540.041 294.171 540.041 295.514 540.041 296.297C540.035 296.617 540.124 296.931 540.298 297.199C540.959 298.194 541.311 299.362 541.31 300.557V309.224C541.315 310.686 540.792 312.101 539.837 313.209C538.882 314.316 537.559 315.041 536.112 315.25C534.167 315.524 532.193 315.524 530.248 315.25C528.814 315.03 527.507 314.301 526.565 313.197C525.623 312.093 525.11 310.687 525.119 309.236V300.557C525.121 299.358 525.474 298.186 526.135 297.187C526.305 296.919 526.392 296.606 526.384 296.289Z" fill="#8CD9FF"/>
<path d="M527.61 297.203V294.465H538.769V297.199C538.78 297.732 538.936 298.251 539.222 298.701C539.713 299.5 539.973 300.419 539.973 301.357V308.775C539.978 310 539.54 311.185 538.74 312.113C537.94 313.04 536.832 313.647 535.619 313.822C534.038 314.039 532.435 314.039 530.853 313.822C529.626 313.659 528.5 313.057 527.684 312.126C526.867 311.196 526.416 310.001 526.414 308.763V301.357C526.412 300.418 526.671 299.497 527.161 298.696C527.444 298.249 527.599 297.732 527.61 297.203Z" fill="#5865F2"/>
<path d="M540.025 295.208C540.025 296.126 536.965 296.868 533.195 296.868C529.425 296.868 526.385 296.114 526.385 295.208L533.211 292.523L540.025 295.208Z" fill="#8CD9FF"/>
<path d="M533.195 297.627C530.028 297.627 527.266 297.17 525.98 296.432C525.635 296.227 525.381 295.897 525.272 295.511C525.163 295.124 525.206 294.71 525.393 294.355L532.607 280.217C532.663 280.109 532.748 280.019 532.852 279.956C532.956 279.893 533.075 279.859 533.197 279.859C533.318 279.859 533.437 279.893 533.541 279.956C533.645 280.019 533.73 280.109 533.786 280.217L540.996 294.355C541.184 294.71 541.228 295.124 541.119 295.511C541.009 295.898 540.755 296.228 540.409 296.432C539.127 297.17 536.361 297.627 533.195 297.627ZM533.195 281.971L526.572 294.955C526.542 295.009 526.532 295.072 526.545 295.133C526.558 295.194 526.592 295.248 526.642 295.285C527.527 295.795 529.906 296.305 533.195 296.305C536.483 296.305 538.866 295.795 539.748 295.285C539.799 295.249 539.834 295.195 539.848 295.134C539.861 295.073 539.852 295.009 539.821 294.955L533.195 281.971Z" fill="black"/>
<path d="M533.863 309.309L535.867 308.787C536.064 308.733 536.232 308.604 536.336 308.428C536.387 308.341 536.421 308.244 536.435 308.143C536.449 308.043 536.442 307.94 536.417 307.842C536.391 307.744 536.346 307.652 536.285 307.571C536.223 307.49 536.146 307.422 536.059 307.371C535.86 307.254 535.623 307.22 535.399 307.277C535.175 307.333 534.982 307.476 534.863 307.673L533.863 309.309Z" fill="white"/>
<path d="M533.864 309.309L533.99 307.245C533.996 307.143 533.982 307.042 533.948 306.946C533.915 306.85 533.862 306.761 533.794 306.686C533.658 306.533 533.467 306.441 533.263 306.429C533.059 306.417 532.858 306.486 532.705 306.62C532.533 306.773 532.428 306.986 532.412 307.215C532.396 307.444 532.471 307.67 532.619 307.845L533.864 309.309Z" fill="white"/>
<path d="M533.439 311.174C534.549 311.525 535.634 311.223 535.887 310.501C536.079 309.893 535.777 309.318 534.716 309.077C534.27 308.965 533.84 308.798 533.435 308.579C532.562 308.122 532.056 308.62 531.864 309.224C531.615 309.95 532.329 310.823 533.439 311.174Z" fill="#121B80"/>
<path d="M535.54 311.328L536.246 311.315C536.811 311.305 537.261 310.84 537.252 310.275C537.242 309.711 536.775 309.261 536.209 309.271L535.504 309.284C534.938 309.294 534.488 309.759 534.498 310.324C534.508 310.888 534.974 311.338 535.54 311.328Z" fill="#FFE75C"/>
<path d="M531.723 301.455L529.903 300.467C529.814 300.419 529.736 300.354 529.672 300.276C529.608 300.197 529.561 300.107 529.532 300.01C529.474 299.813 529.496 299.601 529.594 299.421C529.692 299.24 529.857 299.106 530.054 299.047C530.275 298.982 530.513 299.006 530.717 299.115C530.921 299.223 531.074 299.407 531.144 299.627L531.723 301.455Z" fill="white"/>
<path d="M531.723 301.455L532.094 299.415C532.112 299.314 532.149 299.219 532.205 299.133C532.26 299.048 532.332 298.974 532.416 298.917C532.5 298.859 532.593 298.819 532.693 298.797C532.792 298.776 532.894 298.774 532.993 298.792C533.093 298.811 533.188 298.848 533.273 298.903C533.358 298.958 533.432 299.029 533.489 299.113C533.623 299.303 533.677 299.538 533.638 299.768C533.599 299.997 533.471 300.201 533.281 300.337L531.723 301.455Z" fill="white"/>
<path d="M531.208 301.214C530.257 301.887 529.845 302.936 530.282 303.556C530.649 304.078 531.293 304.185 532.122 303.483C532.48 303.194 532.873 302.953 533.293 302.765C534.186 302.357 534.109 301.638 533.725 301.132C533.289 300.512 532.163 300.541 531.208 301.214Z" fill="#121B80"/>
<path d="M530.1 302.416L529.684 302.987C529.35 303.444 529.45 304.084 529.906 304.416C530.362 304.749 531.002 304.648 531.335 304.191L531.751 303.621C532.085 303.164 531.985 302.524 531.529 302.191C531.073 301.859 530.433 301.959 530.1 302.416Z" fill="#FFE75C"/>
<path d="M533.194 295.832C536.964 295.832 540.02 295.089 540.02 294.171C540.02 293.254 536.964 292.511 533.194 292.511C529.423 292.511 526.367 293.254 526.367 294.171C526.367 295.089 529.423 295.832 533.194 295.832Z" fill="#8CD9FF"/>
<path d="M540.024 294.171H526.367V295.11H540.024V294.171Z" fill="#8CD9FF"/>
<path d="M530.428 294.677C530.579 294.687 530.72 294.75 530.828 294.856C530.935 294.962 531 295.103 531.012 295.253C531.008 295.322 530.989 295.391 530.956 295.452C530.924 295.514 530.878 295.568 530.823 295.611C530.768 295.654 530.704 295.684 530.635 295.699C530.567 295.715 530.497 295.716 530.428 295.702L529.298 295.546C529.148 295.524 529.009 295.452 528.905 295.342C528.801 295.232 528.737 295.09 528.723 294.938C528.726 294.871 528.745 294.804 528.777 294.745C528.81 294.685 528.856 294.634 528.911 294.595C528.967 294.556 529.03 294.529 529.097 294.518C529.164 294.507 529.233 294.511 529.298 294.53L530.428 294.677Z" fill="white"/>
<path d="M536.7 297.415C536.549 297.415 536.402 297.363 536.285 297.268C536.168 297.173 536.087 297.041 536.055 296.893L532.55 280.657C532.532 280.572 532.53 280.485 532.546 280.399C532.562 280.314 532.594 280.232 532.641 280.159C532.688 280.086 532.749 280.023 532.821 279.974C532.892 279.925 532.973 279.89 533.058 279.872C533.143 279.854 533.23 279.852 533.316 279.868C533.401 279.884 533.483 279.916 533.556 279.963C533.629 280.01 533.692 280.071 533.741 280.143C533.79 280.214 533.825 280.295 533.843 280.38L537.348 296.615C537.367 296.7 537.369 296.788 537.353 296.874C537.338 296.959 537.306 297.041 537.259 297.114C537.212 297.187 537.151 297.251 537.079 297.3C537.008 297.35 536.927 297.385 536.842 297.403C536.795 297.411 536.747 297.415 536.7 297.415Z" fill="black"/>
<path d="M532.672 282.318C532.577 282.318 532.482 282.297 532.395 282.257C532.316 282.221 532.246 282.169 532.187 282.106C532.128 282.043 532.082 281.968 532.052 281.887C532.022 281.806 532.009 281.72 532.012 281.633C532.016 281.547 532.036 281.462 532.073 281.384L533.786 277.642C533.859 277.48 533.994 277.353 534.16 277.29C534.327 277.227 534.511 277.232 534.674 277.305C534.836 277.378 534.963 277.513 535.026 277.679C535.089 277.846 535.083 278.03 535.01 278.193L533.293 281.934C533.238 282.052 533.15 282.151 533.04 282.219C532.93 282.288 532.802 282.322 532.672 282.318Z" fill="black"/>
<path d="M533.052 282.481C532.882 282.481 532.718 282.416 532.595 282.299C532.472 282.182 532.399 282.022 532.391 281.853L532.182 277.626C532.174 277.45 532.235 277.279 532.353 277.149C532.471 277.018 532.636 276.941 532.811 276.932C532.986 276.923 533.158 276.985 533.288 277.102C533.418 277.22 533.496 277.385 533.504 277.56L533.713 281.787C533.72 281.963 533.659 282.134 533.541 282.264C533.423 282.393 533.259 282.472 533.084 282.481H533.052Z" fill="black"/>
<path d="M551.63 324.733C549.443 322.26 549.757 320.702 550.484 320.269C551.21 319.837 552.385 320.677 554.36 323.852C556.335 327.026 554.687 328.185 551.63 324.733Z" fill="white"/>
<path d="M562.006 324.749C563.446 321.738 566 319.51 568.29 319.882C570.579 320.253 569.644 323.648 566.657 325.916C563.671 328.185 560.431 328.05 562.006 324.749Z" fill="white"/>
<path d="M550.602 321.954C550.52 321.353 550.58 320.741 550.778 320.167C551.39 320.094 552.263 320.763 553.528 322.583C553.397 323.472 552.977 324.15 552.394 324.248C551.582 324.382 550.782 323.362 550.602 321.954Z" fill="black"/>
<path d="M561.941 324.913C561.966 324.86 561.978 324.807 562.007 324.749C562.709 323.215 563.773 321.873 565.108 320.841C565.478 321.59 565.637 322.427 565.569 323.26C565.459 325.076 564.504 326.496 563.439 326.431C562.782 326.39 562.235 325.81 561.941 324.913Z" fill="black"/>
<path d="M556.452 338.007C555.318 338.007 554.575 337.709 554.188 337.097C553.661 336.281 553.971 335.134 554.392 334.142C553.739 333.404 552.727 331.988 553.661 330.617C554.596 329.246 556.265 329.736 560.39 330.776L560.871 330.895C560.956 330.916 561.035 330.953 561.105 331.005C561.175 331.057 561.234 331.122 561.278 331.197C561.323 331.271 561.353 331.354 561.366 331.44C561.378 331.526 561.374 331.614 561.353 331.698C561.332 331.783 561.294 331.862 561.242 331.932C561.19 332.002 561.125 332.061 561.051 332.106C560.976 332.15 560.893 332.18 560.807 332.193C560.721 332.205 560.633 332.201 560.549 332.18L560.067 332.057C556.881 331.241 555.13 330.833 554.763 331.36C554.628 331.56 554.261 332.094 555.657 333.551C555.748 333.647 555.809 333.768 555.831 333.899C555.853 334.03 555.835 334.165 555.779 334.285C555.093 335.775 555.224 336.248 555.31 336.387C555.395 336.525 555.852 336.685 556.464 336.685C558.313 336.685 560.357 335.518 560.378 335.505C560.453 335.456 560.537 335.422 560.626 335.407C560.714 335.391 560.805 335.394 560.893 335.415C560.98 335.435 561.063 335.474 561.135 335.528C561.207 335.581 561.267 335.649 561.312 335.727C561.357 335.805 561.386 335.891 561.397 335.98C561.407 336.07 561.399 336.16 561.374 336.246C561.348 336.333 561.305 336.413 561.248 336.482C561.19 336.551 561.119 336.607 561.039 336.648C560.932 336.705 558.66 338.007 556.452 338.007Z" fill="black"/>
<path d="M557.313 335.44C557.215 335.44 557.117 335.417 557.029 335.375C556.94 335.333 556.861 335.271 556.799 335.195C556.324 334.566 555.929 333.881 555.624 333.155C555.554 332.993 555.552 332.809 555.618 332.646C555.684 332.482 555.812 332.351 555.975 332.282C556.137 332.213 556.32 332.211 556.484 332.276C556.648 332.342 556.779 332.47 556.848 332.633C557.105 333.25 557.437 333.834 557.835 334.371C557.914 334.468 557.963 334.585 557.978 334.709C557.993 334.833 557.972 334.959 557.918 335.072C557.864 335.185 557.78 335.28 557.674 335.346C557.568 335.413 557.446 335.448 557.321 335.448L557.313 335.44Z" fill="black"/>
<path d="M652.272 349.068C637.175 348.66 624.444 339.99 616.414 332.776C607.792 325.023 602.039 316.662 601.917 315.206C601.909 315.125 601.918 315.044 601.941 314.967C601.965 314.89 602.004 314.818 602.056 314.756C602.107 314.694 602.17 314.643 602.242 314.605C602.313 314.567 602.391 314.544 602.472 314.536C602.552 314.529 602.633 314.537 602.71 314.561C602.787 314.585 602.859 314.624 602.921 314.675C602.983 314.727 603.035 314.79 603.072 314.861C603.11 314.933 603.133 315.011 603.141 315.091C603.324 316.062 608.506 324.068 617.422 332.021C625.232 339.014 637.652 347.436 652.289 347.844C652.451 347.844 652.607 347.909 652.721 348.024C652.836 348.138 652.901 348.294 652.901 348.456C652.901 348.619 652.836 348.774 652.721 348.889C652.607 349.004 652.451 349.068 652.289 349.068H652.272Z" fill="black"/>
</g>
<mask id="mask2" mask-type="alpha" maskUnits="userSpaceOnUse" x="487" y="162" width="163" height="96">
<rect x="487" y="162" width="163" height="96" rx="8" fill="#C4C4C4"/>
</mask>
<g mask="url(#mask2)">
<path d="M651 161.849H487V258.437H651V161.849Z" fill="#EB459F"/>
<path d="M516.679 258.437H535.646L524.253 232.971C523.906 233.288 523.555 233.62 523.223 233.955C523.223 233.955 523.223 233.955 523.223 233.986C515.554 241.656 514.634 250.767 516.679 258.437Z" fill="#5865F2"/>
<path d="M520.278 246.774C520.644 250.959 522.09 254.977 524.473 258.437H573.017C574.881 254.848 575.684 250.803 575.332 246.774C575.212 245.298 574.946 243.838 574.539 242.415C574.298 241.503 573.991 240.611 573.619 239.745C572.772 237.69 571.664 235.752 570.324 233.978C568.022 230.978 565.165 228.449 561.907 226.529C557.039 223.61 551.469 222.07 545.793 222.075C545 222.075 544.206 222.109 543.432 222.17C536.727 222.677 530.896 225.374 526.761 229.462C525.404 230.807 524.216 232.314 523.226 233.948C523.226 233.948 523.226 233.948 523.226 233.978C520.925 237.829 519.894 242.305 520.278 246.774Z" fill="#3FA5F2"/>
<path d="M546.617 258.437H638.594C639.775 255.874 640.692 253.198 641.333 250.451C642.633 245.075 642.58 239.461 641.177 234.112C640.66 232.177 639.943 230.302 639.037 228.517C635.517 221.484 629.243 215.904 621.05 212.685C620.829 212.609 620.608 212.513 620.383 212.433C620.158 212.353 619.91 212.258 619.67 212.197C614.577 210.418 609.216 209.533 603.823 209.58C597.407 209.604 591.038 210.674 584.966 212.75C576.381 215.641 568.518 220.343 561.907 226.537C560.958 227.426 560.054 228.33 559.184 229.279C557.877 230.683 556.649 232.159 555.508 233.7C555.221 234.081 554.935 234.463 554.668 234.874C551.303 239.553 548.885 244.844 547.552 250.451C546.937 253.069 546.624 255.748 546.617 258.437Z" fill="#3FA5F2"/>
<path d="M598.721 258.437H601.669C603.185 255.635 605.218 253.145 607.661 251.099C611.383 247.93 616.025 245.664 620.701 245.046C621.017 245 621.318 244.966 621.635 244.951C622.108 244.895 622.585 244.868 623.061 244.871C626.582 244.871 629.545 245.996 631.429 248.074C631.867 248.551 632.24 249.083 632.539 249.657C633.664 251.732 633.901 254.333 633.222 257.186C633.126 257.598 632.997 258.025 632.871 258.437H635.644C635.708 258.231 635.773 258.01 635.819 257.804C636.788 253.746 636.2 250.039 634.122 247.201C633.902 246.882 633.658 246.58 633.393 246.297C631.033 243.65 627.39 242.243 623.157 242.224C622.219 242.213 621.282 242.272 620.353 242.399C611.303 243.605 602.336 250.451 598.721 258.437Z" fill="#66BCFF"/>
<path d="M562.67 258.437H565.393C566.456 253.034 568.548 248.584 571.671 245.088C572.548 244.117 573.508 243.224 574.539 242.418C580.737 237.506 588.578 236.446 594.429 236.492C594.773 236.49 595.103 236.356 595.351 236.117C595.599 235.879 595.745 235.554 595.76 235.21C596.046 228.379 600.672 220.614 606.996 216.35C611.097 213.512 616.07 212.215 621.035 212.689C620.814 212.612 620.592 212.517 620.367 212.437C617.947 211.526 615.346 211.202 612.776 211.491C610.206 211.78 607.742 212.674 605.585 214.1C605.56 214.113 605.538 214.129 605.52 214.149C598.8 218.68 593.967 226.446 593.193 233.829C587.266 233.94 579.817 235.195 573.605 239.756C572.179 240.812 570.862 242.006 569.672 243.322C566.141 247.281 563.795 252.335 562.67 258.437Z" fill="#66BCFF"/>
<path d="M586.865 251.717C593.986 250.767 595.496 250.626 597.071 250.42C598.647 250.214 599.253 246.553 599.959 241.877C600.664 237.201 599.833 228.753 599.833 228.753L589.31 231.884L586.865 251.717Z" fill="#FF78B9"/>
<path d="M615.119 225.668C610.798 220.801 588.776 203.886 588.776 203.886L583.589 211.339C583.589 211.339 590.893 219.382 596.129 224.825C585.508 225.671 566.354 228.189 566.354 228.189C552.765 225.465 545.621 224.966 545.621 224.966L561.014 210.934L555.854 203.306C555.854 203.306 542.551 211.464 535.022 217.334C527.494 223.204 526.315 230.446 533.417 235.996C540.518 241.545 542.951 243.132 542.951 243.132L588.856 247.865C602.316 244.146 610.352 240.069 615.226 235.836C619.688 231.972 619.44 230.534 615.119 225.668Z" fill="#FFC619"/>
<path d="M543.542 225.176C543.482 225.176 543.423 225.167 543.366 225.149C543.336 225.149 540.567 224.352 539.011 224.092C538.847 224.057 538.704 223.961 538.61 223.823C538.516 223.685 538.479 223.516 538.507 223.352C538.534 223.187 538.624 223.039 538.758 222.939C538.892 222.839 539.058 222.795 539.224 222.815C540.849 223.089 543.603 223.871 543.721 223.905C543.87 223.95 543.998 224.046 544.082 224.177C544.166 224.307 544.2 224.464 544.179 224.618C544.157 224.772 544.081 224.913 543.964 225.015C543.847 225.117 543.697 225.174 543.542 225.176Z" fill="black"/>
<path d="M586.003 201.529L581.385 209.207C581.385 209.207 585.645 213.6 586.545 214.58C588.269 212.651 589.92 209.34 589.451 204.389C587.518 202.83 586.003 201.529 586.003 201.529Z" fill="black"/>
<path d="M556.209 235.176C549.984 227.586 547.761 224.233 546.495 220.42C545.568 217.624 551.071 219.348 558.23 221.457C565.389 223.566 564.21 225.614 556.209 235.176Z" fill="#FF78B9"/>
<path d="M547.3 223.986C540.725 231.289 540.584 240.283 541.316 252.731C541.316 252.731 530.046 264.085 531.636 274.013C533.227 283.941 548.666 288.163 566.21 287.995C580.321 287.858 581.912 284.505 583.182 277.873C584.013 273.533 584.589 268.521 584.955 264.646C585.352 260.57 586.381 256.582 588.006 252.823C596.653 232.685 589.692 225.42 589.692 225.42L566.267 227.327L547.3 223.986Z" fill="#FF78B9"/>
<path d="M552.458 213.528C546.92 217.605 548.103 223.787 555.891 232.38L559.354 235.851L581.959 232.128C589.205 223.135 587.764 217.14 585.132 213.368C588.809 207.265 589.064 203.07 589.026 199.328C588.965 192.963 583.214 183.016 568.709 183.157C560.769 183.233 553.785 186.308 551.276 196.327C550.406 199.881 550.154 205.537 552.458 213.528Z" fill="#FFE75C"/>
<path d="M580.398 191.372C580.574 191.371 580.749 191.407 580.911 191.477C581.073 191.548 581.219 191.651 581.339 191.781C581.458 191.911 581.549 192.065 581.606 192.232C581.663 192.4 581.684 192.577 581.668 192.753L580.874 201.495C580.652 203.458 579.729 205.275 578.276 206.614C576.822 207.952 574.935 208.722 572.96 208.783H571.202C569.146 208.802 567.153 208.068 565.601 206.719C564.049 205.37 563.045 203.499 562.777 201.46L562.396 198.562C562.352 198.218 562.183 197.902 561.922 197.674C561.66 197.446 561.324 197.322 560.977 197.326C560.626 197.33 560.289 197.464 560.031 197.702C559.774 197.941 559.613 198.266 559.581 198.615L559.158 203.295C559.017 204.832 558.31 206.262 557.175 207.308C556.04 208.353 554.557 208.94 553.013 208.955C552.095 208.982 551.182 208.813 550.334 208.458C549.487 208.103 548.726 207.57 548.101 206.897C547.477 206.223 547.004 205.423 546.714 204.551C546.425 203.679 546.326 202.755 546.423 201.842L547.228 193.02C547.259 192.661 547.423 192.326 547.689 192.081C547.954 191.836 548.301 191.699 548.662 191.697L580.398 191.372Z" fill="black"/>
<path d="M581.26 191.712L589.044 199.328L589.059 200.907L581.298 195.492L581.26 191.712Z" fill="black"/>
<path d="M589.69 225.393C586.086 221.96 581.299 218.909 577.066 217.448C572.832 215.988 571.863 215.542 570.899 217.979C569.934 220.416 568.915 223.12 568.477 223.974C568.038 224.828 563.541 228.017 560.723 230.359C557.904 232.7 555.002 237.662 555.002 237.662L584.568 239.897L589.69 225.393Z" fill="#FF78B9"/>
<path d="M596.019 224.725L599.833 228.764C598.109 234.207 596.969 240.969 596.355 248.536L581.229 249.638L589.692 225.423L596.019 224.725Z" fill="#FF78B9"/>
<path d="M547.3 223.986C546.201 223.783 545.221 223.604 544.489 223.49C544.059 223.419 543.618 223.448 543.201 223.576C542.784 223.704 542.403 223.926 542.086 224.226C538.738 227.407 536.747 231.057 536.018 235.122C535.133 240.08 535.435 240.595 541.14 243.627C544.954 245.66 548.886 236.652 551.057 230.492C551.292 229.819 551.379 229.103 551.312 228.393C551.245 227.683 551.026 226.995 550.67 226.378C550.313 225.76 549.827 225.227 549.246 224.814C548.664 224.401 548.001 224.119 547.3 223.986Z" fill="#FF78B9"/>
<path d="M546.543 200.492L558.893 191.582L554.293 191.624L546.863 196.987L546.543 200.492Z" fill="#5865F2"/>
<path d="M549.508 208.047C550.568 208.675 551.781 208.996 553.013 208.974C554.556 208.96 556.039 208.373 557.175 207.327C558.31 206.281 559.016 204.851 559.157 203.314L559.371 200.926L549.508 208.047Z" fill="#5865F2"/>
<path d="M580.399 191.372L575.311 191.422L562.656 200.556L562.778 201.479C562.909 202.48 563.219 203.449 563.694 204.34L581.238 191.685C581.005 191.483 580.707 191.371 580.399 191.372Z" fill="#5865F2"/>
<path d="M580.875 201.495L581.256 197.299L566.893 207.666C568.2 208.428 569.689 208.823 571.202 208.81H572.961C574.94 208.748 576.83 207.974 578.284 206.63C579.738 205.286 580.658 203.463 580.875 201.495Z" fill="#5865F2"/>
<path d="M558.544 210.389C558.386 210.387 558.234 210.328 558.117 210.222C558 210.117 557.925 209.972 557.907 209.815C557.888 209.659 557.928 209.501 558.018 209.371C558.108 209.242 558.242 209.149 558.395 209.111C560.218 208.73 562.101 208.73 563.925 209.111C564.092 209.15 564.237 209.254 564.327 209.399C564.417 209.545 564.446 209.72 564.407 209.887C564.369 210.054 564.265 210.199 564.119 210.289C563.974 210.38 563.798 210.409 563.631 210.37C562.001 210.04 560.322 210.04 558.692 210.37C558.644 210.384 558.594 210.39 558.544 210.389Z" fill="black"/>
<path d="M560.944 179.24C560.106 181.553 560.008 184.069 560.661 186.441C560.774 186.854 561.019 187.218 561.359 187.477C561.698 187.737 562.114 187.878 562.542 187.879H566.485C566.927 187.875 567.363 187.781 567.766 187.602C568.17 187.423 568.532 187.163 568.831 186.838C571.207 184.29 575.536 183.691 578.903 185.106L580.967 182.173C581.17 181.888 581.266 181.539 581.236 181.19C581.206 180.84 581.052 180.513 580.803 180.266C578.849 178.405 576.514 176.992 573.959 176.126C571.404 175.259 568.691 174.959 566.008 175.247C564.874 175.368 563.796 175.806 562.9 176.513C562.004 177.219 561.325 178.165 560.944 179.24Z" fill="#FF8C19"/>
<path d="M596.638 245.477C596.356 248.528 596.844 249.604 597.557 248.353C598.27 247.102 598.457 244.836 598.457 244.836L596.638 245.477Z" fill="black"/>
<path d="M577.397 229.268C577.25 229.269 577.107 229.22 576.992 229.129C576.877 229.037 576.796 228.909 576.764 228.766C576.732 228.623 576.749 228.472 576.814 228.34C576.878 228.208 576.986 228.102 577.119 228.04C579.751 226.777 582.733 225.751 588.74 224.947C588.826 224.934 588.913 224.939 588.997 224.96C589.081 224.981 589.16 225.019 589.229 225.07C589.299 225.122 589.357 225.187 589.401 225.261C589.446 225.336 589.475 225.418 589.488 225.504C589.5 225.589 589.496 225.676 589.474 225.76C589.453 225.844 589.416 225.923 589.364 225.993C589.312 226.062 589.247 226.121 589.173 226.165C589.099 226.209 589.016 226.239 588.931 226.251C583.092 227.048 580.216 228.017 577.691 229.226C577.598 229.263 577.497 229.277 577.397 229.268Z" fill="black"/>
<path d="M602.609 232.525C602.441 232.525 602.28 232.459 602.159 232.342C601.126 231.335 600.321 230.523 599.768 229.928C599.651 229.801 599.589 229.634 599.596 229.462C599.603 229.29 599.678 229.127 599.804 229.01C599.931 228.894 600.098 228.832 600.27 228.839C600.442 228.845 600.605 228.92 600.722 229.047C601.256 229.626 602.041 230.424 603.063 231.415C603.155 231.505 603.217 231.621 603.243 231.747C603.269 231.872 603.257 232.003 603.208 232.122C603.159 232.241 603.077 232.343 602.97 232.414C602.863 232.486 602.738 232.525 602.609 232.525Z" fill="black"/>
<path d="M581.233 256.793C581.101 256.79 580.974 256.746 580.868 256.669C580.762 256.591 580.681 256.483 580.638 256.359C580.595 256.235 580.59 256.101 580.625 255.974C580.659 255.847 580.732 255.734 580.832 255.649C582.739 254.158 585.604 251.976 585.63 251.953C585.697 251.897 585.775 251.855 585.859 251.829C585.943 251.803 586.032 251.795 586.119 251.805C586.206 251.815 586.29 251.842 586.367 251.885C586.443 251.928 586.51 251.986 586.563 252.056C586.617 252.126 586.655 252.206 586.677 252.291C586.698 252.376 586.702 252.464 586.688 252.551C586.674 252.638 586.643 252.721 586.596 252.795C586.55 252.869 586.488 252.933 586.416 252.983C586.386 253.006 583.529 255.184 581.63 256.667C581.515 256.751 581.375 256.796 581.233 256.793Z" fill="black"/>
<path d="M559.942 244.093H556.509C556.42 244.093 556.332 244.074 556.25 244.039C556.168 244.004 556.094 243.952 556.032 243.887C555.972 243.82 555.926 243.743 555.897 243.658C555.867 243.574 555.855 243.484 555.861 243.395C556.101 240.857 556.513 238.337 557.093 235.855C557.216 235.327 557.456 234.833 557.794 234.409C558.687 233.283 559.722 232.277 560.872 231.415C562.878 229.912 564.892 228.421 566.849 226.98C568.431 225.817 569.632 224.211 570.3 222.365C572.112 217.407 572.589 216.831 572.764 216.621C572.878 216.502 573.033 216.43 573.197 216.421C573.362 216.412 573.524 216.466 573.65 216.572C573.776 216.677 573.857 216.827 573.877 216.991C573.897 217.155 573.853 217.32 573.756 217.452C573.638 217.593 573.127 218.394 571.517 222.792C570.762 224.879 569.404 226.695 567.615 228.009C565.659 229.443 563.653 230.935 561.647 232.437C560.581 233.236 559.624 234.169 558.798 235.214C558.578 235.488 558.423 235.807 558.344 236.148C557.834 238.341 557.452 240.562 557.199 242.8H559.324C559.415 241.423 559.64 237.998 559.804 235.721C559.821 235.553 559.903 235.399 560.032 235.29C560.161 235.182 560.327 235.128 560.495 235.139C560.664 235.151 560.82 235.228 560.933 235.354C561.045 235.48 561.104 235.644 561.097 235.813C560.888 238.715 560.579 243.486 560.579 243.486C560.568 243.649 560.497 243.802 560.379 243.914C560.261 244.026 560.105 244.09 559.942 244.093Z" fill="#F551A0"/>
<path d="M596.513 225.24C593.809 232.105 590.811 243.723 593.118 249.31C593.333 249.844 593.622 250.344 593.976 250.798L595.243 250.645C594.727 250.165 594.326 249.575 594.072 248.917C592.031 243.959 594.575 233.181 597.298 226.072L596.513 225.24Z" fill="#F551A0"/>
<path d="M536.561 240.691C536.85 240.995 537.169 241.27 537.514 241.511C538.17 233.906 541.275 227.487 546.073 223.764L544.719 223.532C540.252 227.365 537.335 233.498 536.561 240.691Z" fill="#F551A0"/>
<path d="M581.407 253.54C581.245 253.535 581.091 253.469 580.975 253.357C580.86 253.244 580.79 253.092 580.78 252.93C580.771 252.769 580.822 252.609 580.924 252.484C581.026 252.358 581.171 252.275 581.331 252.251L588.547 251.377C588.712 251.366 588.875 251.419 589.003 251.525C589.131 251.631 589.213 251.781 589.233 251.946C589.253 252.111 589.209 252.277 589.111 252.41C589.012 252.543 588.866 252.634 588.703 252.663L581.498 253.536L581.407 253.54Z" fill="black"/>
<path d="M542.428 188.268C541.989 187.984 541.615 187.61 541.332 187.171C541.048 186.732 540.862 186.237 540.785 185.72L540.518 183.939C540.511 183.896 540.489 183.857 540.457 183.829C540.424 183.801 540.382 183.786 540.338 183.787C540.296 183.786 540.254 183.801 540.222 183.83C540.189 183.858 540.168 183.897 540.163 183.939L539.896 185.72C539.819 186.238 539.632 186.733 539.347 187.172C539.063 187.612 538.689 187.985 538.248 188.268L538.019 188.417C537.994 188.432 537.973 188.454 537.958 188.48C537.943 188.506 537.936 188.536 537.936 188.565C537.935 188.596 537.943 188.626 537.958 188.653C537.972 188.679 537.994 188.702 538.019 188.718L538.248 188.867C538.689 189.149 539.063 189.523 539.347 189.962C539.632 190.402 539.819 190.897 539.896 191.414L540.163 193.196C540.168 193.238 540.189 193.277 540.222 193.305C540.254 193.333 540.296 193.348 540.338 193.348C540.382 193.349 540.424 193.333 540.457 193.305C540.489 193.277 540.511 193.238 540.518 193.196L540.785 191.414C540.862 190.897 541.048 190.403 541.332 189.963C541.615 189.524 541.989 189.15 542.428 188.867L542.661 188.718C542.686 188.701 542.706 188.678 542.72 188.651C542.734 188.625 542.741 188.595 542.741 188.565C542.741 188.536 542.734 188.507 542.72 188.481C542.706 188.455 542.686 188.433 542.661 188.417L542.428 188.268Z" fill="white"/>
</g>
<path d="M73.564 102.624C73.564 101.886 72.988 101.364 72.286 101.364C71.566 101.364 70.99 101.886 70.99 102.624C70.99 103.344 71.566 103.848 72.286 103.848C72.988 103.848 73.564 103.344 73.564 102.624ZM73.348 114.666V105.306H71.188V114.486C71.188 115.242 70.828 115.512 70.234 115.512C69.982 115.512 69.73 115.494 69.532 115.44L69.82 117.204C69.964 117.258 70.342 117.276 70.666 117.276C72.268 117.276 73.348 116.538 73.348 114.666ZM75.6147 105.306V111.552C75.6147 113.19 76.4607 114.18 78.0987 114.18C79.2507 114.18 80.1867 113.55 80.9967 112.776L81.1947 114H83.0307V105.306H80.8707V111.174C80.2407 111.822 79.5567 112.254 78.8907 112.254C78.0987 112.254 77.7747 111.75 77.7747 110.994V105.306H75.6147ZM91.6748 111.444C91.6748 109.806 90.7928 109.194 88.5428 108.618C87.2468 108.276 86.9228 108.006 86.9228 107.538C86.9228 107.07 87.3188 106.746 88.1288 106.746C88.9928 106.746 90.0188 107.052 90.8828 107.538L91.1708 105.738C90.3068 105.36 89.2628 105.126 88.1288 105.126C86.1128 105.126 84.9248 106.188 84.9248 107.7C84.9248 109.284 85.8068 109.896 87.9128 110.436C89.2988 110.778 89.6768 111.03 89.6768 111.642C89.6768 112.218 89.1728 112.56 88.2368 112.56C87.1568 112.56 86.0048 112.146 85.0688 111.534L84.7808 113.334C85.6088 113.784 86.9048 114.18 88.1648 114.18C90.4508 114.18 91.6748 113.154 91.6748 111.444ZM98.0319 114L97.7619 112.182C97.5639 112.236 97.3299 112.254 97.0779 112.254C96.2499 112.254 95.9439 111.876 95.9439 111.174V107.07H97.9779L97.7079 105.306H95.9439V102.228L93.8019 102.552V105.306H92.5779V107.07H93.8019V111.534C93.8019 113.514 94.9539 114.144 96.6639 114.144C97.2939 114.144 97.6899 114.072 98.0319 114ZM103.844 109.86V107.772H99.1644V109.86H103.844ZM112.332 113.334L112.044 111.48C111.252 112.092 110.514 112.308 109.758 112.308C108.498 112.308 107.508 111.444 107.508 109.644C107.508 107.916 108.408 106.998 109.686 106.998C110.55 106.998 111.234 107.286 111.936 107.808L112.242 105.864C111.612 105.468 110.712 105.126 109.578 105.126C107.22 105.126 105.33 106.674 105.33 109.698C105.33 112.542 107.04 114.162 109.452 114.162C110.604 114.162 111.504 113.892 112.332 113.334ZM121.475 114V107.736C121.475 106.116 120.611 105.126 118.991 105.126C117.839 105.126 116.939 105.738 116.219 106.404V101.004L114.059 101.346V114H116.219V108.132C116.849 107.466 117.533 107.034 118.199 107.034C118.991 107.034 119.315 107.556 119.315 108.312V114H121.475ZM126.105 102.624C126.105 101.886 125.529 101.364 124.827 101.364C124.107 101.364 123.531 101.886 123.531 102.624C123.531 103.344 124.107 103.848 124.827 103.848C125.529 103.848 126.105 103.344 126.105 102.624ZM125.889 114V105.306H123.729V114H125.889ZM130.424 114V101.004L128.264 101.346V114H130.424ZM134.959 114V101.004L132.799 101.346V114H134.959ZM139.71 102.624C139.71 101.886 139.134 101.364 138.432 101.364C137.712 101.364 137.136 101.886 137.136 102.624C137.136 103.344 137.712 103.848 138.432 103.848C139.134 103.848 139.71 103.344 139.71 102.624ZM139.494 114V105.306H137.334V114H139.494ZM149.196 114V107.736C149.196 106.116 148.332 105.126 146.712 105.126C145.542 105.126 144.624 105.756 143.814 106.53L143.616 105.306H141.78V114H143.94V108.132C144.57 107.466 145.254 107.034 145.92 107.034C146.712 107.034 147.036 107.556 147.036 108.312V114H149.196Z" fill="white"/>
<path fill-rule="evenodd" clip-rule="evenodd" d="M53.4351 100.694C53.0922 100.559 52.6981 100.634 52.4359 100.884L48.5007 105.002H45.7507C45.2465 105.002 44.834 105.396 44.834 105.877V111.127C44.834 111.608 45.2465 112.002 45.7507 112.002H48.5007L52.4359 116.121C52.6981 116.372 53.0922 116.447 53.4351 116.311C53.7779 116.176 54.0007 115.856 54.0007 115.502V101.502C54.0007 101.149 53.7779 100.828 53.4351 100.694ZM55.834 102.377V104.127C58.3612 104.127 60.4173 106.09 60.4173 108.502C60.4173 110.914 58.3612 112.877 55.834 112.877V114.627C59.3723 114.627 62.2507 111.88 62.2507 108.502C62.2507 105.125 59.3723 102.377 55.834 102.377ZM55.834 105.877C57.3502 105.877 58.584 107.055 58.584 108.502C58.584 109.95 57.3502 111.127 55.834 111.127V109.377C56.3391 109.377 56.7507 108.984 56.7507 108.502C56.7507 108.02 56.3391 107.627 55.834 107.627V105.877Z" fill="#B9BBBE"/>
<circle cx="261" cy="435" r="24" fill="#DBE7FF"/>
<path d="M270.526 431.149C270.231 430.966 269.862 430.951 269.553 431.105L267 432.382V430C267 428.897 266.103 428 265 428H253C251.897 428 251 428.897 251 430V440C251 441.104 251.897 442 253 442H265C266.103 442 267 441.104 267 440V437.618L269.553 438.894C269.694 438.965 269.847 439 270 439C270.183 439 270.365 438.949 270.526 438.851C270.82 438.668 271 438.347 271 438V432C271 431.653 270.82 431.332 270.526 431.149Z" fill="#1C1B29"/>
<circle cx="318" cy="435" r="24" fill="#DBE7FF"/>
<path fill-rule="evenodd" clip-rule="evenodd" d="M308 428.5C308 427.397 308.897 426.5 310 426.5H326C327.103 426.5 328 427.397 328 428.5V439.5C328 440.604 327.103 441.5 326 441.5H319V443.5H323V445.5H313V443.5H317V441.5H310C308.897 441.5 308 440.604 308 439.5V428.5ZM319.2 438.338V435.6C315.864 435.6 313.668 436.662 312 439C312.672 435.662 314.532 432.337 319.2 431.662V429L324 433.663L319.2 438.338Z" fill="#1C1B29"/>
<circle cx="375" cy="435" r="24" fill="#DBE7FF"/>
<path d="M369.7 434H368C368 435.19 368.34 436.3 368.9 437.28L370.13 436.05C369.86 435.43 369.7 434.74 369.7 434Z" fill="#1C1B29"/>
<path d="M372.01 434.085C372.015 434.112 372.02 434.14 372.02 434.17L378 428.18V428C378 426.34 376.66 425 375 425C373.34 425 372 426.34 372 428V434C372 434.03 372.005 434.058 372.01 434.085Z" fill="#1C1B29"/>
<path d="M374.724 439.093L373.963 439.853L373.253 440.569C373.498 440.633 373.747 440.684 374 440.72V445H376V440.72C379.28 440.23 382 437.41 382 434H380.3C380.3 437 377.76 439.1 375 439.1C374.908 439.1 374.815 439.098 374.724 439.093Z" fill="#1C1B29"/>
<path d="M384 427.27L382.73 426L366 442.73L367.27 444L371.46 439.82L372.69 438.58L374.35 436.92L377.99 433.28L384 427.27Z" fill="#1C1B29"/>
<circle cx="432" cy="435" r="24" fill="#E7366B"/>
<path fill-rule="evenodd" clip-rule="evenodd" d="M441.117 424.116L442.884 425.884L439.768 429L442.884 432.116L441.117 433.884L438 430.768L434.884 433.884L433.117 432.116L436.233 429L433.117 425.884L434.884 424.116L438 427.232L441.117 424.116ZM438 445H433C426.925 445 422 440.075 422 434V429C422 428.447 422.448 428 423 428H427C427.553 428 428 428.447 428 429V433C428 433.553 427.553 434 427 434H426C426.063 437.938 429 441 433 441V440C433 439.447 433.447 439 434 439H438C438.553 439 439 439.447 439 440V444C439 444.553 438.553 445 438 445Z" fill="white"/>
<mask id="mask3" mask-type="alpha" maskUnits="userSpaceOnUse" x="43" y="132" width="430" height="266">
<path d="M473 140C473 135.582 469.418 132 465 132H51C46.5817 132 43 135.582 43 140V390C43 394.418 46.5817 398 51 398H465C469.418 398 473 394.418 473 390V140Z" fill="#A8BFFF"/>
</mask>
<g mask="url(#mask3)">
<path d="M472.891 132H42.8906V398H472.891V132Z" fill="#FFE75C"/>
<path d="M191.141 355.17C182.501 339.11 172.831 330.46 162.391 329.47C148.481 328.15 137.701 341.18 137.601 341.31L134.821 344.72L134.931 340.32C135.121 332.84 132.681 320.39 126.811 309.41C121.951 300.33 112.951 288.93 97.6911 286.2C89.9511 284.82 84.1211 286.05 80.3611 289.85C72.6911 297.6 75.6411 313.68 75.6711 313.85L76.2011 316.68L73.5811 315.5C53.9311 306.7 39.1111 305.78 29.5311 312.77C14.3411 323.86 17.2711 351.59 17.3011 351.87L14.3011 352.21C14.1611 351 11.1411 322.48 27.7411 310.35C37.8211 302.98 52.8111 303.44 72.3211 311.69C71.7511 306.38 71.4211 294.62 78.2011 287.76C82.7011 283.21 89.4311 281.69 98.2011 283.26C125.201 288.08 136.761 318.49 137.851 336.66C142.121 332.55 151.271 325.41 162.651 326.49C174.031 327.57 184.651 336.75 193.771 353.76L191.141 355.17Z" fill="#FFC619"/>
<path d="M357.952 361.5C357.392 348.79 360.442 338.99 367.022 332.37C371.96 327.594 378.351 324.603 385.182 323.87C379.493 318.461 375.449 311.554 373.517 303.946C371.584 296.337 371.843 288.338 374.262 280.87C378.842 266.57 390.352 256.7 403.582 255.72C429.042 253.86 435.732 280.72 437.042 287.78C446.622 285.63 455.342 286.97 463.042 291.78C472.832 297.92 479.042 308.72 482.472 316.7C484.717 321.829 486.459 327.164 487.672 332.63L484.732 333.21C484.672 332.94 479.002 305.32 461.432 294.31C454.102 289.72 445.632 288.63 436.252 291.09L434.592 291.52L434.382 289.81C433.511 284.046 431.679 278.468 428.962 273.31C423.252 262.83 414.812 257.92 403.852 258.74C391.852 259.62 381.372 268.67 377.162 281.81C373.292 293.9 374.592 311.34 389.872 324.06L393.262 326.88L388.852 326.71C388.742 326.71 377.282 326.39 369.172 334.57C363.232 340.57 360.482 349.57 361.002 361.42L357.952 361.5Z" fill="#FFC619"/>
<path d="M234.74 188.716C236.638 183.149 233.544 177.057 227.83 175.11C222.116 173.162 215.946 176.097 214.049 181.664C212.151 187.232 215.245 193.324 220.959 195.271C226.673 197.218 232.843 194.284 234.74 188.716Z" fill="#2A39D4"/>
<path d="M295.14 296.07C304.68 297.67 315.69 303.12 328.23 320.88C337.32 313.77 341.11 316.39 350.83 327.1C360.55 337.81 381.83 358.35 386.83 365.02C391.83 371.69 394.76 385.02 377.83 392.69C360.9 400.36 334.92 379.23 321.47 367.2C308.02 355.17 289.67 340.74 289.67 340.74L295.14 296.07Z" fill="#2331B5"/>
<path d="M346.931 322.94C349.451 328.68 352.751 337.01 354.111 343.94C356.051 353.78 351.511 358.88 343.031 364.36C335.291 369.36 331.451 368.03 327.761 364.27C327.54 364.079 327.256 363.979 326.965 363.988C326.674 363.997 326.397 364.115 326.189 364.32C325.981 364.524 325.858 364.799 325.843 365.09C325.829 365.38 325.924 365.666 326.111 365.89C327.968 367.993 330.5 369.383 333.271 369.82C336.471 370.21 340.041 369.04 344.271 366.3C351.711 361.49 358.781 355.77 356.371 343.49C355.41 339.024 354.1 334.64 352.451 330.38C351.817 328.677 350.851 327.117 349.611 325.79C348.651 324.73 347.541 323.56 346.931 322.94Z" fill="#3442D9"/>
<path d="M344.011 383C343.678 383.002 343.356 382.877 343.111 382.65C342.481 382.07 327.561 368.39 321.211 360.73C321.037 360.461 320.967 360.137 321.014 359.819C321.062 359.502 321.223 359.213 321.468 359.005C321.713 358.798 322.025 358.688 322.346 358.694C322.667 358.7 322.975 358.823 323.211 359.04C329.451 366.56 344.711 380.56 344.861 380.7C344.99 380.817 345.094 380.959 345.167 381.116C345.241 381.274 345.283 381.445 345.29 381.618C345.297 381.792 345.27 381.966 345.211 382.129C345.151 382.292 345.059 382.442 344.941 382.57C344.823 382.701 344.68 382.807 344.52 382.881C344.361 382.954 344.187 382.995 344.011 383Z" fill="black"/>
<path d="M260.172 287.953C295.391 282.388 319.879 252.174 314.869 220.468C309.859 188.763 277.247 167.572 242.028 173.138C206.81 178.703 182.321 208.917 187.332 240.623C192.342 272.328 224.954 293.518 260.172 287.953Z" fill="#FF78B9"/>
<path d="M206.95 220.74C205.4 233.4 210.1 245.36 217.44 247.47C223.92 249.33 227.44 243.11 229.19 230.92C229.64 227.76 230.19 224.6 230.79 221.46C232.93 210.13 229.59 203.54 223.04 201.66C215.7 199.55 208.49 208.09 206.95 220.74Z" fill="white"/>
<path d="M262.651 228.4C261.561 226.53 261.047 224.379 261.173 222.218C261.299 220.057 262.061 217.981 263.361 216.25C275.981 199.68 285.651 200.25 292.541 201.43C300.151 202.77 303.791 209.75 296.161 225.37C303.161 235.05 298.791 242.61 287.161 242.37C277.141 242.09 269.591 240.36 262.651 228.4Z" fill="#D11583"/>
<path d="M316.4 413C323.33 369.95 310.2 362.74 310.45 349.77C310.7 336.8 311.52 319.21 299.63 298.77C299.63 298.77 303.36 281.49 305.76 269.83C305.854 269.375 305.844 268.905 305.729 268.454C305.615 268.004 305.4 267.585 305.101 267.23C304.802 266.874 304.425 266.592 304.001 266.403C303.576 266.214 303.114 266.124 302.65 266.14C293.249 266.453 283.839 265.867 274.55 264.39C258.55 261.96 237.03 257.68 211.09 277.39L217.36 288.83L216.73 289.67C216.288 290.259 215.98 290.937 215.827 291.657C215.675 292.378 215.682 293.123 215.847 293.84C216.013 294.557 216.334 295.23 216.787 295.81C217.24 296.391 217.814 296.865 218.47 297.2L219.81 297.89C219.81 297.89 197.14 308.06 199.93 337.62C202.72 367.18 192.63 394.25 202.21 404.12C204.162 406.098 206.585 407.547 209.25 408.332C211.916 409.118 214.737 409.213 217.45 408.61L263.05 440.53C278.44 462.33 300.91 487.35 300.91 487.35L275.81 531.47L290 585.67C312.75 544.87 340.87 505.55 347.35 486.67C353.83 467.79 342.14 454.63 316.4 413Z" fill="#2331B5"/>
<path d="M224.34 382.89L208.34 368.66C208.34 368.66 220.79 355.41 227.68 347.38C228.27 346.69 228.84 345.98 229.38 345.26C229.555 345.021 229.812 344.855 230.102 344.794C230.391 344.733 230.694 344.782 230.95 344.93C231.188 345.066 231.373 345.278 231.475 345.532C231.576 345.786 231.589 346.068 231.51 346.33C224.7 369.18 224.34 382.89 224.34 382.89Z" fill="black"/>
<path d="M305.3 272C295.54 274 283.16 272.41 268.49 270.19C252.74 267.8 239.03 265.73 212.49 279.95L215.82 286.03C240.26 272.92 252.35 274.74 267.44 277.03C281.44 279.15 293.51 280.68 303.76 279.27C304.3 276.83 304.82 274.35 305.3 272Z" fill="#3442D9"/>
<path d="M281.652 406.56C281.955 406.597 282.261 406.512 282.502 406.325C282.744 406.138 282.902 405.863 282.942 405.56C285.822 384.49 280.372 361.93 277.942 353.21C275.441 344.238 274.385 334.924 274.812 325.62C275.312 313.46 273.912 303.81 272.812 300.01L281.512 265.26L279.142 265L270.352 300.08L270.452 300.39C271.452 303.68 272.952 313.39 272.452 325.54C272.015 335.088 273.102 344.644 275.672 353.85C278.102 362.43 283.462 384.62 280.672 405.26C280.65 405.41 280.659 405.562 280.697 405.709C280.735 405.855 280.801 405.992 280.892 406.113C280.983 406.234 281.097 406.336 281.227 406.412C281.358 406.489 281.502 406.539 281.652 406.56Z" fill="black"/>
<path d="M250.971 405C251.631 401.08 248.191 386.11 243.191 374.95C238.191 363.79 235.861 356.05 229.531 358.73C223.201 361.41 208.301 368.73 208.301 368.73C208.301 368.73 220.741 355.48 227.641 347.45C242.781 329.81 241.641 302.79 219.811 297.98C200.601 305.73 196.751 313.98 176.041 341.98C155.331 369.98 141.221 400.98 157.921 416.42C174.621 431.86 193.601 424.94 228.631 414.47C243.631 409.99 250.311 408.99 250.971 405.07" fill="#2331B5"/>
<path d="M229.02 412.35C225.57 410.24 223.02 404.35 220.49 392.52C216.23 372.69 215.13 366.62 219.73 363.18L217.14 364.43C216.502 364.722 215.946 365.165 215.519 365.721C215.092 366.277 214.807 366.929 214.69 367.62C213.91 372.67 215.56 380.35 218.27 393.01C219.99 401.01 221.72 406.38 223.8 409.91C224.623 411.331 225.894 412.44 227.414 413.062C228.933 413.684 230.616 413.786 232.2 413.35C231.075 413.275 229.985 412.932 229.02 412.35Z" fill="#3442D9"/>
<path d="M190.571 378.12C190.268 378.125 189.973 378.025 189.734 377.838C189.496 377.65 189.33 377.387 189.263 377.091C189.196 376.796 189.233 376.486 189.367 376.215C189.502 375.943 189.725 375.726 190.001 375.6C191.331 374.97 222.731 360.15 229.001 357.49C235.771 354.62 238.661 361.27 242.671 370.49C243.211 371.73 243.781 373.04 244.381 374.39C244.452 374.548 244.492 374.719 244.498 374.893C244.503 375.066 244.475 375.239 244.413 375.402C244.352 375.564 244.259 375.713 244.141 375.84C244.022 375.966 243.879 376.068 243.721 376.14C243.563 376.212 243.392 376.251 243.218 376.257C243.045 376.262 242.872 376.234 242.709 376.172C242.547 376.111 242.398 376.018 242.271 375.9C242.145 375.781 242.042 375.638 241.971 375.48C241.351 374.11 240.781 372.8 240.241 371.55C235.901 361.55 234.031 358.25 230.031 359.94C223.801 362.58 191.451 377.85 191.121 378C190.949 378.082 190.761 378.123 190.571 378.12Z" fill="black"/>
<path d="M320.4 310.29C319.707 310.29 319.042 310.019 318.547 309.535C318.052 309.051 317.766 308.392 317.75 307.7C317.026 279.691 318.86 251.675 323.23 224C323.305 223.542 323.27 223.072 323.129 222.63C322.987 222.188 322.743 221.786 322.417 221.456C322.09 221.126 321.69 220.879 321.249 220.733C320.808 220.588 320.339 220.549 319.88 220.62L286.04 225.81C285.687 225.885 285.322 225.888 284.968 225.817C284.614 225.747 284.278 225.605 283.98 225.399C283.683 225.194 283.431 224.93 283.24 224.624C283.048 224.318 282.921 223.976 282.866 223.619C282.812 223.262 282.831 222.898 282.922 222.549C283.013 222.199 283.175 221.872 283.397 221.587C283.62 221.303 283.898 221.067 284.215 220.893C284.531 220.72 284.88 220.614 285.24 220.58L319.08 215.38C320.366 215.183 321.68 215.293 322.915 215.701C324.15 216.11 325.271 216.804 326.186 217.729C327.101 218.654 327.784 219.782 328.179 221.022C328.575 222.261 328.671 223.576 328.46 224.86C324.143 252.211 322.333 279.899 323.05 307.58C323.063 308.282 322.799 308.961 322.313 309.469C321.828 309.976 321.162 310.272 320.46 310.29H320.4Z" fill="#66BCFF"/>
<path d="M299.002 307.33C301.492 313.73 305.862 325.24 306.642 328.9C306.332 334.45 304.932 343.9 304.472 346.9C304.436 347.155 304.494 347.415 304.636 347.63C304.778 347.846 304.993 348.002 305.242 348.07C314.032 350.55 317.932 351.21 321.582 351.13C325.853 350.84 330.103 350.303 334.312 349.52C334.512 349.485 334.704 349.411 334.876 349.301C335.048 349.191 335.196 349.049 335.313 348.881C335.429 348.714 335.511 348.525 335.554 348.326C335.596 348.126 335.599 347.92 335.562 347.72C333.512 336.54 332.302 328.41 332.302 328.41C333.202 314.97 334.432 304.41 334.862 300.79C334.905 300.439 334.813 300.084 334.602 299.799C334.392 299.514 334.08 299.321 333.732 299.26C321.602 297.04 317.352 296.43 312.832 296.21C308.312 295.99 306.572 298.4 299.542 304.99C299.229 305.282 299.011 305.661 298.914 306.078C298.818 306.494 298.849 306.93 299.002 307.33Z" fill="white"/>
<path d="M334.07 348.42C334.07 348.42 335.44 349.13 334.31 349.51C334.511 349.475 334.703 349.401 334.874 349.291C335.046 349.181 335.195 349.039 335.311 348.871C335.427 348.704 335.509 348.515 335.552 348.316C335.594 348.116 335.597 347.91 335.56 347.71C333.51 336.53 332.3 328.4 332.3 328.4C333.2 314.96 334.43 304.4 334.86 300.78C334.904 300.429 334.811 300.074 334.6 299.789C334.39 299.504 334.078 299.311 333.73 299.25C321.61 297.03 317.35 296.42 312.83 296.2C311.879 296.139 310.925 296.244 310.01 296.51L318.6 322.35L315.07 344.85L334.07 348.42Z" fill="#FFC619"/>
<path d="M316.432 345.67C317.712 353.9 318.962 359.84 323.792 361.5C328.622 363.16 335.242 358.79 343.842 352.06C352.442 345.33 350.522 338.55 347.952 332.14C345.382 325.73 345.862 318.02 342.192 314.37C337.556 310.08 332.516 306.248 327.142 302.93C322.742 300.26 320.042 299.93 312.012 307.03C303.982 314.13 299.532 318.15 300.342 321.45C300.967 323.81 301.732 326.131 302.632 328.4C299.142 331.24 298.732 333.83 299.722 337.3C300.712 340.77 300.772 343.86 307.452 344.68C314.132 345.5 316.432 345.67 316.432 345.67Z" fill="#FF78B9"/>
<path d="M303.06 328.29C302.781 328.288 302.51 328.198 302.285 328.033C302.059 327.868 301.892 327.637 301.805 327.371C301.719 327.106 301.719 326.82 301.804 326.554C301.889 326.288 302.056 326.056 302.28 325.89C313.17 317.98 322.69 310.89 322.78 310.81C322.918 310.687 323.079 310.594 323.254 310.537C323.43 310.479 323.615 310.459 323.798 310.477C323.982 310.496 324.16 310.552 324.32 310.642C324.481 310.733 324.621 310.855 324.732 311.003C324.842 311.15 324.921 311.319 324.963 311.499C325.005 311.678 325.009 311.865 324.975 312.046C324.941 312.227 324.87 312.399 324.765 312.552C324.661 312.704 324.527 312.833 324.37 312.93C324.27 313 314.74 320.11 303.84 328.04C303.613 328.204 303.34 328.292 303.06 328.29Z" fill="black"/>
<path d="M319.141 336C314.657 338.107 310.032 339.902 305.301 341.37C304.971 343.76 304.671 345.78 304.501 346.9C304.465 347.155 304.523 347.415 304.665 347.63C304.807 347.846 305.022 348.002 305.271 348.07C314.061 350.55 317.961 351.21 321.611 351.13C325.882 350.84 330.132 350.303 334.341 349.52C334.541 349.485 334.733 349.411 334.905 349.301C335.077 349.191 335.225 349.049 335.342 348.881C335.458 348.714 335.54 348.525 335.583 348.326C335.625 348.126 335.628 347.92 335.591 347.72C335.421 346.79 335.261 345.89 335.101 345.01C335.101 345.01 325.691 341.21 319.141 336Z" fill="white"/>
<path d="M335.07 345C335.07 345 325.69 341.21 319.07 336C319.07 336 317.96 336.53 316.22 337.29L315.14 344.46C315.132 344.512 315.133 344.565 315.145 344.616C315.157 344.667 315.179 344.716 315.21 344.758C315.24 344.801 315.279 344.837 315.324 344.865C315.369 344.893 315.418 344.912 315.47 344.92L334.08 348.42C334.08 348.42 335.45 349.13 334.32 349.51C334.52 349.477 334.712 349.404 334.884 349.296C335.056 349.188 335.204 349.046 335.32 348.88V348.83C335.415 348.675 335.485 348.506 335.53 348.33C335.57 348.125 335.57 347.915 335.53 347.71C335.36 346.8 335.2 345.91 335.05 345.05L335.07 345Z" fill="#FFC619"/>
<path d="M233.711 362.61C238.443 358.317 242.177 353.04 244.651 347.15C246.411 343.38 248.651 337.86 249.401 335.82C250.631 332.54 252.801 332.82 255.821 333.95C258.841 335.08 259.941 335.66 258.821 341C257.701 346.34 254.821 358.88 254.821 358.88L233.711 362.61Z" fill="#FF78B9"/>
<path d="M293.792 373.19C292.522 367.53 291.922 364.62 290.442 362.19C288.962 359.76 287.512 359.19 279.882 357.84C276.882 357.31 271.082 356.73 267.252 356.37C275.092 355.31 283.252 354.65 285.052 354.37C287.722 353.95 290.342 353.9 289.552 350.44C288.762 346.98 287.842 346.12 285.922 345.84C281.236 345.212 276.502 345.028 271.782 345.29C264.83 345.877 257.931 346.977 251.142 348.58C247.142 349.76 241.432 356.17 233.682 362.58C235.392 373.66 240.682 390.75 247.012 399.47C257.302 396.86 264.012 389.15 266.802 386.27C279.292 385.69 283.412 387.53 290.052 389.22C294.252 390.29 294.952 387.27 295.452 385.89C295.952 384.51 294.952 378.32 293.792 373.19Z" fill="#FF78B9"/>
<path d="M214.611 222.48C213.511 227.91 214.771 232.75 217.411 233.29C219.631 233.73 221.651 231.89 222.351 226.78C222.681 224.621 223.213 222.499 223.941 220.44C225.461 216.03 223.591 214.04 221.381 213.6C218.741 213.06 215.701 217 214.611 222.48Z" fill="black"/>
<path d="M263.98 161.88C268.57 161.45 275.03 164.51 276.25 170.95C277.47 177.39 278.04 186.95 267.25 187.36C262.69 187.51 258.32 184.99 251.89 178.55C247.27 173.92 241.89 171.82 229.2 176.42C223.28 171.23 227.94 160.23 244.69 168.05C238.21 157.33 241.38 150.71 247.06 149.48C252.74 148.25 260.93 150.21 263.98 161.88Z" fill="#2A39D4"/>
<path d="M261.641 180.82C258.351 175.61 256.071 169 254.061 163.17C251.881 156.83 250.061 151.58 247.441 149.41L247.031 149.48C245.986 149.697 244.999 150.13 244.131 150.75C244.412 150.662 244.71 150.641 245.001 150.69C247.491 151.2 249.621 157.38 251.881 163.92C253.931 169.92 256.261 176.62 259.691 182.06C260.802 183.794 262.093 185.406 263.541 186.87C264.733 187.233 265.976 187.399 267.221 187.36H267.441C265.188 185.486 263.233 183.281 261.641 180.82Z" fill="black"/>
<path d="M274.651 184.35C273.998 185.114 273.199 185.74 272.301 186.19C272.724 177.347 269.812 168.668 264.141 161.87C265.184 161.801 266.233 161.889 267.251 162.13C272.031 168.554 274.624 176.342 274.651 184.35Z" fill="black"/>
<path d="M339.642 350C339.52 349.998 339.399 349.981 339.282 349.95C336.01 348.789 333.268 346.484 331.562 343.46C331.407 343.159 331.372 342.811 331.465 342.485C331.559 342.16 331.772 341.882 332.063 341.709C332.353 341.536 332.699 341.48 333.03 341.552C333.36 341.625 333.65 341.821 333.842 342.1C335.218 344.531 337.401 346.405 340.012 347.4C340.347 347.5 340.63 347.728 340.799 348.035C340.967 348.342 341.008 348.703 340.911 349.04C340.835 349.317 340.669 349.562 340.439 349.735C340.21 349.909 339.929 350.002 339.642 350Z" fill="black"/>
<path d="M276.141 325.66C274.815 325.498 273.598 324.844 272.731 323.827C271.864 322.81 271.411 321.505 271.461 320.17L271.891 308.17L274.251 308.46L279.751 320.79C279.999 321.354 280.093 321.973 280.024 322.584C279.955 323.196 279.726 323.779 279.36 324.273C278.993 324.768 278.502 325.156 277.937 325.4C277.372 325.644 276.752 325.733 276.141 325.66Z" fill="#FFE75C"/>
<path d="M232.71 300.81H232.55L219.64 299.23C219.314 299.161 219.026 298.972 218.832 298.7C218.639 298.428 218.555 298.094 218.596 297.763C218.638 297.432 218.802 297.129 219.057 296.914C219.311 296.698 219.637 296.586 219.97 296.6L232.87 298.18C233.22 298.201 233.548 298.361 233.78 298.623C234.013 298.886 234.131 299.23 234.11 299.58C234.089 299.93 233.93 300.257 233.667 300.49C233.404 300.722 233.06 300.841 232.71 300.82V300.81Z" fill="black"/>
<path d="M294.03 374.29L293.79 373.19L293.48 371.8C282.2 369.27 270.24 366.99 258.48 366.75C258.192 366.777 257.925 366.91 257.73 367.124C257.536 367.337 257.428 367.616 257.428 367.905C257.428 368.194 257.536 368.473 257.73 368.686C257.925 368.9 258.192 369.033 258.48 369.06C270.36 369.29 282.57 371.69 294.03 374.29Z" fill="black"/>
<path d="M226.411 217.88L218.291 220.66L228.421 226.75L226.411 217.88Z" fill="white"/>
<path d="M289.601 230.51C289.369 230.508 289.141 230.447 288.94 230.331C288.738 230.215 288.57 230.05 288.451 229.85C288.341 229.65 285.341 224.85 277.031 224.85C276.681 224.863 276.34 224.737 276.083 224.499C275.826 224.261 275.674 223.93 275.661 223.58C275.648 223.23 275.774 222.889 276.012 222.632C276.251 222.375 276.581 222.223 276.931 222.21C283.671 221.68 286.671 218.86 288.341 216.78C288.57 216.533 288.883 216.382 289.219 216.357C289.554 216.332 289.887 216.435 290.15 216.646C290.412 216.856 290.585 217.158 290.634 217.491C290.682 217.824 290.603 218.163 290.411 218.44C288.676 220.615 286.41 222.306 283.831 223.35C286.647 224.285 289.078 226.119 290.751 228.57C290.926 228.874 290.974 229.235 290.884 229.574C290.794 229.913 290.574 230.203 290.271 230.38C290.063 230.48 289.832 230.525 289.601 230.51Z" fill="black"/>
<path d="M165.67 278.77C164.371 277.934 163.265 276.831 162.425 275.535C161.586 274.238 161.032 272.777 160.8 271.25L160.02 265.99C160.001 265.864 159.937 265.749 159.84 265.666C159.742 265.583 159.618 265.538 159.49 265.54C159.364 265.541 159.243 265.587 159.148 265.669C159.052 265.752 158.989 265.865 158.97 265.99L158.18 271.25C157.953 272.777 157.402 274.239 156.564 275.536C155.726 276.833 154.62 277.935 153.32 278.77L152.64 279.21C152.566 279.259 152.506 279.326 152.464 279.405C152.422 279.483 152.4 279.571 152.4 279.66C152.399 279.748 152.421 279.834 152.463 279.911C152.505 279.989 152.566 280.053 152.64 280.1L153.32 280.54C154.615 281.385 155.715 282.496 156.546 283.8C157.377 285.104 157.921 286.57 158.14 288.1L158.93 293.36C158.949 293.485 159.012 293.598 159.108 293.681C159.203 293.763 159.324 293.809 159.45 293.81C159.578 293.811 159.702 293.767 159.8 293.684C159.897 293.601 159.961 293.486 159.98 293.36L160.76 288.1C160.993 286.572 161.547 285.11 162.387 283.812C163.226 282.514 164.332 281.409 165.63 280.57L166.31 280.13C166.385 280.083 166.446 280.019 166.488 279.941C166.53 279.864 166.552 279.778 166.55 279.69C166.551 279.601 166.529 279.513 166.487 279.435C166.445 279.356 166.384 279.289 166.31 279.24L165.67 278.77Z" fill="#66BCFF"/>
<path d="M332.331 168.2C331.584 167.721 330.948 167.087 330.465 166.342C329.982 165.597 329.664 164.758 329.531 163.88L329.081 160.88C329.071 160.808 329.035 160.741 328.98 160.693C328.925 160.645 328.854 160.619 328.781 160.62C328.708 160.619 328.637 160.645 328.582 160.693C328.527 160.741 328.491 160.808 328.481 160.88L328.031 163.88C327.9 164.757 327.584 165.596 327.102 166.341C326.621 167.086 325.987 167.72 325.241 168.2L324.851 168.46C324.808 168.486 324.772 168.523 324.748 168.567C324.723 168.61 324.711 168.66 324.711 168.71C324.711 168.762 324.724 168.812 324.748 168.858C324.772 168.903 324.808 168.942 324.851 168.97L325.241 169.22C325.987 169.7 326.621 170.334 327.102 171.079C327.584 171.824 327.9 172.663 328.031 173.54L328.481 176.54C328.491 176.612 328.527 176.679 328.582 176.727C328.637 176.775 328.708 176.801 328.781 176.8C328.854 176.801 328.925 176.775 328.98 176.727C329.035 176.679 329.071 176.612 329.081 176.54L329.531 173.54C329.664 172.662 329.982 171.823 330.465 171.078C330.948 170.333 331.584 169.699 332.331 169.22L332.721 168.97C332.762 168.94 332.796 168.901 332.821 168.856C332.845 168.811 332.859 168.761 332.861 168.71C332.859 168.66 332.846 168.611 332.822 168.568C332.797 168.524 332.763 168.487 332.721 168.46L332.331 168.2Z" fill="#FFC619"/>
<path d="M368.771 198.2C367.495 197.373 366.409 196.286 365.585 195.008C364.761 193.731 364.218 192.293 363.991 190.79L363.211 185.61C363.194 185.487 363.133 185.375 363.039 185.294C362.945 185.213 362.825 185.169 362.701 185.17C362.576 185.17 362.456 185.215 362.361 185.295C362.266 185.376 362.202 185.487 362.181 185.61L361.411 190.79C361.184 192.294 360.64 193.733 359.814 195.011C358.988 196.288 357.899 197.375 356.621 198.2L355.951 198.63C355.877 198.677 355.816 198.742 355.774 198.819C355.732 198.896 355.711 198.982 355.711 199.07C355.711 199.158 355.732 199.244 355.774 199.321C355.816 199.398 355.877 199.463 355.951 199.51L356.621 199.94C357.899 200.764 358.988 201.852 359.814 203.129C360.64 204.407 361.184 205.846 361.411 207.35L362.181 212.53C362.202 212.653 362.266 212.764 362.361 212.845C362.456 212.925 362.576 212.969 362.701 212.97C362.825 212.971 362.945 212.927 363.039 212.846C363.133 212.765 363.194 212.653 363.211 212.53L363.991 207.35C364.218 205.847 364.761 204.409 365.585 203.132C366.409 201.854 367.495 200.766 368.771 199.94L369.451 199.51C369.525 199.463 369.585 199.398 369.627 199.321C369.669 199.244 369.691 199.158 369.691 199.07C369.691 198.982 369.669 198.896 369.627 198.819C369.585 198.742 369.525 198.677 369.451 198.63L368.771 198.2Z" fill="white"/>
</g>
<defs>
<filter id="filter0_d" x="672" y="382" width="80" height="80" filterUnits="userSpaceOnUse" color-interpolation-filters="sRGB">
<feFlood flood-opacity="0" result="BackgroundImageFix"/>
<feColorMatrix in="SourceAlpha" type="matrix" values="0 0 0 0 0 0 0 0 0 0 0 0 0 0 0 0 0 0 127 0"/>
<feOffset dy="8"/>
<feGaussianBlur stdDeviation="8"/>
<feColorMatrix type="matrix" values="0 0 0 0 0 0 0 0 0 0 0 0 0 0 0 0 0 0 0.2 0"/>
<feBlend mode="normal" in2="BackgroundImageFix" result="effect1_dropShadow"/>
<feBlend mode="normal" in="SourceGraphic" in2="effect1_dropShadow" result="shape"/>
</filter>
<filter id="filter1_d" x="729" y="382" width="80" height="80" filterUnits="userSpaceOnUse" color-interpolation-filters="sRGB">
<feFlood flood-opacity="0" result="BackgroundImageFix"/>
<feColorMatrix in="SourceAlpha" type="matrix" values="0 0 0 0 0 0 0 0 0 0 0 0 0 0 0 0 0 0 127 0"/>
<feOffset dy="8"/>
<feGaussianBlur stdDeviation="8"/>
<feColorMatrix type="matrix" values="0 0 0 0 0 0 0 0 0 0 0 0 0 0 0 0 0 0 0.2 0"/>
<feBlend mode="normal" in2="BackgroundImageFix" result="effect1_dropShadow"/>
<feBlend mode="normal" in="SourceGraphic" in2="effect1_dropShadow" result="shape"/>
</filter>
</defs>
</svg>
